<?xml version="1.0" encoding="UTF-8" standalone="no"?>
<!DOCTYPE svg PUBLIC "-//W3C//DTD SVG 1.1//EN" "http://www.w3.org/Graphics/SVG/1.1/DTD/svg11.dtd">
<svg width="100%" height="100%" viewBox="0 0 659 182" version="1.1" xmlns="http://www.w3.org/2000/svg" xmlns:xlink="http://www.w3.org/1999/xlink" xml:space="preserve" xmlns:serif="http://www.serif.com/" style="fill-rule:evenodd;clip-rule:evenodd;stroke-linejoin:round;stroke-miterlimit:2;">
    <g transform="matrix(1,0,0,1,-9640.223081,-2390.589253)">
        <g transform="matrix(1,0,0,2.857143,6402.972425,606.171067)">
            <g transform="matrix(1.028695,0,0,0.187522,-9503.920342,595.238783)">
                <g transform="matrix(1.104245,0,0,1.104245,-1089.338174,-149.218018)">
                    <g transform="matrix(0.946953,0,0,1.818149,12260.96141,-145.400471)">
                        <path d="M281.77,315.617L291.677,315.617C293.186,315.617 294.42,316.851 294.42,318.36L294.42,318.36C294.42,319.868 293.186,321.103 291.677,321.103L281.77,321.103C280.261,321.103 279.027,319.868 279.027,318.36L279.027,318.36C279.027,316.851 280.261,315.617 281.77,315.617ZM270.237,308.905C271.866,309.285 277.594,309.074 279.654,309.074C281.62,309.074 277.601,306.551 286.548,306.551C288.494,306.551 291.899,306.518 293.275,307.223C294.548,307.875 294.452,310.147 294.452,312.102C292.62,311.612 294.968,310.083 284.53,310.083C283.372,310.083 282.799,310.188 281.821,310.156C279.874,310.093 275.744,310.618 273.91,311.234C273.419,311.4 272.403,312.021 271.985,312.336C268.511,314.949 268.138,322.841 271.628,325.68C274.482,328.001 281.333,327.408 285.539,327.408C288.603,327.408 292.212,327.058 294.017,324.283C294.079,324.188 294.325,323.766 294.333,323.757C294.576,323.439 294.381,323.519 294.788,323.371L294.788,326.735L304.373,326.735L304.373,309.074C304.373,307.323 304.165,306.184 303.679,304.89C303.314,303.917 302.36,302.606 301.517,302.006C299.072,300.266 298.196,300.554 295.912,300.212C293.242,299.811 287.995,299.991 285.035,299.991C282.41,299.991 277.027,300.578 274.886,301.614C271.708,303.153 270.552,305.118 270.237,308.905ZM250.34,291.126C250.34,292.934 250.145,296.63 250.508,298.19L260.261,298.19L260.261,290.453L251.013,290.453C250.619,290.453 250.34,290.732 250.34,291.126ZM250.623,301.386L250.589,327.047L260.185,327.045L260.183,301.386C259.388,301.173 251.296,301.177 250.623,301.386ZM446.579,304.919L446.074,304.919C446.074,300.326 446.721,301.047 443.552,301.05C441.366,301.051 439.18,301.05 436.994,301.05C436.819,303.155 436.994,318.066 436.994,320.897L436.975,325.945C436.916,326.546 436.548,327.121 437.33,327.121L446.747,327.121C446.747,323.466 446.244,312.7 447.757,310.134C448.144,309.478 448.871,308.761 449.601,308.446C452.083,307.377 457.475,307.315 457.678,310.805C457.72,311.54 457.646,312.824 458.35,312.824L466.757,312.824C467.599,312.824 467.262,311.389 467.262,309.123C467.262,305.187 465.545,302.147 462.075,301.024C459.041,300.044 455.46,300.249 452.366,300.783C451.105,301.001 449.847,301.455 448.907,302.201C447.707,303.154 448.113,302.714 447.226,303.884C446.944,304.255 446.703,304.453 446.579,304.919ZM132.63,304.919L132.126,304.919C132.126,304.052 132.225,302.48 132.143,301.705C132.071,301.022 132.015,301.059 131.306,301.028L123.045,301.05C122.619,302.882 122.877,323.023 122.877,326.617C122.877,327.004 122.995,327.121 123.382,327.121L132.799,327.121C132.799,323.644 132.356,312.84 133.691,310.352C134.162,309.473 134.631,308.939 135.539,308.501C137.519,307.545 141.346,307.529 142.82,308.856C143.212,309.209 143.636,310.095 143.709,310.658C144.069,313.455 142.269,312.824 152.473,312.824C152.927,312.824 152.937,312.744 153.314,312.656C153.314,307.743 153.591,303.48 148.607,301.216C145.895,299.984 139.05,300.016 135.879,301.607C134.634,302.231 132.946,303.735 132.63,304.919ZM514.178,301.218C514.35,301.864 516.251,303.883 516.744,304.369C517.537,305.151 524.603,313.329 524.603,313.665C524.603,314.104 519.758,319.7 519.185,320.355L516.48,323.705C515.854,324.446 514.059,326.306 513.841,327.121L526.117,327.121C526.29,326.472 527.8,324.539 528.352,323.806C529.066,322.857 531.748,318.622 532.675,318.375C532.804,318.858 533.646,319.931 534.052,320.53L535.581,322.701C536.127,323.428 536.589,324.107 537.114,324.867C537.533,325.474 538.39,326.484 538.56,327.121L551.34,327.121C551.189,326.555 551.121,326.68 550.743,326.204C548.734,323.679 541.224,314.879 540.074,313.16L547.685,304.29C548.117,303.864 550.008,301.798 550.163,301.218C549.465,300.826 539.812,301.05 538.224,301.05C537.42,301.05 537.47,301.316 536.954,301.966L532.338,307.778C531.168,306.994 527.863,301.05 526.957,301.05C525.634,301.05 514.469,300.863 514.178,301.218ZM322.984,305.087C322.984,303.507 323.312,301.05 322.479,301.05L314.239,301.05C313.852,301.05 313.735,301.167 313.735,301.554L313.735,327.121L323.656,327.121C323.656,322.306 323.518,317.045 323.831,312.326C323.902,311.258 324.517,310.038 325.149,309.44L326.286,308.726C326.902,308.428 327.053,308.387 327.815,308.237C330.607,307.687 334.653,307.5 337.172,308.723C338.852,309.539 339.126,311.271 339.126,313.665L339.126,327.121L349.048,327.121L349.048,312.151C349.048,310.232 348.787,308.351 348.275,306.868C347.841,305.61 346.617,303.938 345.71,303.211C341.457,299.8 334.954,300.013 329.759,300.762C328.031,301.011 328.282,300.973 326.908,301.611C324.037,302.943 324.029,304.807 322.984,305.087ZM483.573,327.121C484.895,327.121 486.195,327.038 487.272,327.289C487.173,328.482 485.972,331.072 483.644,331.566C483.442,331.609 482.667,331.75 482.498,331.767C481.569,331.861 482.205,331.663 481.387,331.663C480.534,331.663 480.471,331.831 479.537,331.831L479.537,338.391C479.537,338.778 479.654,338.895 480.042,338.895C483.726,338.895 488.766,339.434 491.609,337.009C492.643,336.126 492.57,336.151 493.319,334.851L508.18,303.46C509.783,300.281 510.604,301.05 498.707,301.05C498.171,301.05 498.13,301.4 497.953,301.809C497.747,302.283 497.671,302.524 497.458,302.996L490.299,319.384C489.573,318.897 489.148,316.928 488.752,316.054L486.913,311.333C486.751,310.904 486.592,310.654 486.41,310.154L483.198,301.929C483.016,301.5 482.965,301.05 482.396,301.05L472.643,301.05C471.583,301.05 472.777,302.988 473.267,304.126L480.603,320.505C481.55,322.479 482.691,325.453 483.573,327.121ZM172.582,316.003L182.489,316.003C183.998,316.003 185.232,317.237 185.232,318.746L185.232,318.746C185.232,320.255 183.998,321.489 182.489,321.489L172.582,321.489C171.073,321.489 169.839,320.255 169.839,318.746L169.839,318.746C169.839,317.237 171.073,316.003 172.582,316.003ZM161.049,309.292C162.678,309.671 168.406,309.46 170.466,309.46C172.432,309.46 168.413,306.937 177.36,306.937C179.306,306.937 182.711,306.904 184.087,307.609C185.36,308.261 185.264,310.533 185.264,312.488C183.433,311.998 185.78,310.469 175.342,310.469C174.184,310.469 173.611,310.574 172.633,310.542C170.686,310.479 166.556,311.004 164.722,311.62C164.231,311.786 163.215,312.407 162.797,312.722C159.323,315.335 158.95,323.228 162.44,326.066C165.294,328.387 172.145,327.794 176.351,327.794C179.415,327.794 183.024,327.444 184.829,324.669C184.891,324.574 185.137,324.152 185.145,324.143C185.388,323.825 185.193,323.905 185.6,323.757L185.6,327.121L195.185,327.121L195.185,309.46C195.185,307.709 194.977,306.57 194.491,305.276C194.126,304.303 193.172,302.992 192.329,302.392C189.884,300.652 189.008,300.94 186.724,300.598C184.054,300.197 178.807,300.377 175.847,300.377C173.222,300.377 167.839,300.964 165.698,302C162.52,303.539 161.364,305.504 161.049,309.292ZM219.783,307.601L227.157,307.601C229.753,307.601 231.877,309.725 231.877,312.321L231.877,315.861C231.877,318.457 229.753,320.58 227.157,320.58L219.783,320.58C217.187,320.58 215.063,318.457 215.063,315.861L215.063,312.321C215.063,309.725 217.187,307.601 219.783,307.601ZM204.938,290.958L204.938,327.121L214.186,327.121L214.186,323.925C215.486,324.033 214.901,325.686 217.952,326.887C220.91,328.052 225.76,327.794 229.153,327.794C234.743,327.794 239.813,326.519 241.049,321.191C241.892,317.558 241.596,315.852 241.596,311.815C241.596,305.549 239.472,302.065 234.079,300.999C233.316,300.848 232.37,300.773 231.411,300.64C227.555,300.107 219.501,299.874 216.58,302.603C215.678,303.445 215.423,304.036 214.859,304.414L214.869,291.789C214.88,291.074 215.035,290.453 214.355,290.453L205.442,290.453C205.055,290.453 204.938,290.57 204.938,290.958ZM87.329,299.022L89.703,299.022L96.578,312.69L80.373,312.69L87.329,299.022ZM60.66,327.121L73.608,327.121L76.317,321.59C76.46,321.33 76.493,321.066 76.971,321.066L99.504,321.066C100.083,321.066 100.155,321.19 100.681,321.234C100.721,321.717 101.779,323.6 102.082,324.206L103.539,327.121L116.319,327.121C116.233,326.084 112.824,320.235 112.289,319.042L98.439,292.527C98.173,291.994 97.569,290.453 96.981,290.453L80.334,290.453C79.627,290.453 77.792,294.649 77.109,295.805L66.656,315.458C65.855,317.08 60.746,326.081 60.66,327.121ZM392.921,299.775L411.885,299.775C414.328,299.775 416.328,301.775 416.328,304.218L416.328,313.538C416.328,315.982 414.328,317.981 411.885,317.981L392.921,317.981C390.477,317.981 388.478,315.982 388.478,313.538L388.478,304.218C388.478,301.775 390.477,299.775 392.921,299.775ZM377.298,305.423C377.298,309.883 377.114,315.684 377.929,319.762C378.38,322.022 379.168,323.957 381.165,325.272C383.816,327.017 384.725,326.855 387.772,327.241C392.655,327.86 411.398,327.751 416.651,327.294C421.409,326.88 425.546,325.873 426.782,320.607C427.924,315.739 427.577,309.745 427.577,304.582C427.577,300.316 427.36,295.136 423.856,292.493C420.596,290.035 414.282,290.117 410.257,290.117L386.756,290.494C381.546,291.188 378.921,293.151 377.958,297.841C377.481,300.167 377.298,302.871 377.298,305.423" style="fill:white;"/>
                    </g>
                    <g transform="matrix(0.946953,0,0,1.818149,12260.96141,-0.30543)">
                        <path d="M279.095,265.484L279.095,271.707C279.095,273.11 278.644,270.866 275.227,270.866C270.701,270.866 264.633,269.954 264.633,276.249C264.633,278.546 264.369,280.947 266.215,282.572C268.146,284.271 272.177,283.818 275.227,283.818C278.386,283.818 277.969,282.941 279.095,282.64L279.095,283.818L281.281,283.818L281.281,265.484C280.629,265.469 280.714,265.363 280.272,265.364C279.86,265.365 279.759,265.484 279.095,265.484ZM269.804,272.842L276.023,272.842C277.71,272.842 279.091,274.222 279.091,275.91L279.091,278.851C279.091,280.538 277.71,281.919 276.023,281.919L269.804,281.919C268.116,281.919 266.736,280.538 266.736,278.851L266.736,275.91C266.736,274.222 268.116,272.842 269.804,272.842ZM314.576,276.921C314.576,278.532 314.536,278.985 315.014,280.688C315.219,281.418 315.725,282.083 316.212,282.517C318.193,284.283 322.67,283.818 325.842,283.818C331.343,283.818 331.223,279.786 331.223,276.417C331.223,270.019 325.902,270.866 320.798,270.866C318.752,270.866 317.175,271.186 316.124,272.246C315.643,272.731 315.164,273.328 314.981,274.131C314.796,274.946 314.576,276.084 314.576,276.921ZM319.946,272.694L325.948,272.694C327.558,272.694 328.876,274.011 328.876,275.622L328.876,278.779C328.876,280.389 327.558,281.707 325.948,281.707L319.946,281.707C318.336,281.707 317.018,280.389 317.018,278.779L317.018,275.622C317.018,274.011 318.336,272.694 319.946,272.694ZM227.639,273.894C227.639,275.313 227.374,275.071 229.993,275.071C229.993,272.408 232.388,272.885 236.215,272.885C237.508,272.885 239.092,273.041 239.819,273.653C240.169,273.948 240.011,273.777 240.273,274.208C240.791,275.059 240.755,276.053 240.755,277.258C239.933,277.038 239.472,276.249 237.728,276.249C235.058,276.249 229.944,275.823 228.278,277.056C227,278.003 226.966,280.419 227.44,281.83L228.037,282.747C228.246,282.949 228.128,282.841 228.308,282.98C229.955,284.256 234.631,283.818 237.392,283.818C239.785,283.818 240.096,282.984 240.755,282.808L240.755,283.818L242.773,283.818L242.773,275.071C242.773,270.074 236.776,270.866 233.02,270.866C231.517,270.866 229.798,271.046 228.758,271.817C228.402,272.08 228.478,272.005 228.259,272.327C228.043,272.644 227.639,273.451 227.639,273.894ZM231.175,278.089L238.757,278.089C239.797,278.089 240.648,278.94 240.648,279.98C240.648,281.02 239.797,281.87 238.757,281.87L231.175,281.87C230.135,281.87 229.284,281.02 229.284,279.98C229.284,278.94 230.135,278.089 231.175,278.089ZM158.526,274.062C158.526,275.431 158.884,275.071 160.881,275.071C160.75,274.508 160.749,274.356 161.036,273.892C161.853,272.568 164.62,272.885 166.766,272.885C169.595,272.885 170.983,273.076 171.469,275.077C171.629,275.733 171.643,276.411 171.643,277.258C171.008,277.088 170.744,276.692 170.052,276.494C168.641,276.09 163.766,276.249 162.058,276.249C159.351,276.249 158.022,277.41 158.022,280.117C158.022,282.79 159.576,283.818 162.226,283.818C164.08,283.818 169.017,284.062 170.301,283.484C170.85,283.237 170.98,282.963 171.643,282.808L171.643,283.818C173.076,283.818 173.661,284.015 173.661,283.313L173.661,275.407C173.661,269.955 167.85,270.866 163.571,270.866C161.079,270.866 158.526,271.596 158.526,274.062ZM162.009,278.089L169.591,278.089C170.631,278.089 171.482,278.94 171.482,279.98C171.482,281.02 170.631,281.87 169.591,281.87L162.009,281.87C160.969,281.87 160.118,281.02 160.118,279.98C160.118,278.94 160.969,278.089 162.009,278.089ZM469.952,274.903C469.952,277.101 470.215,280.899 471.17,282.095C472.57,283.847 475.525,283.818 477.856,283.818L485.423,283.818C490.73,283.818 491.476,282.261 491.476,277.426L489.29,277.426C487.779,277.426 490.472,281.016 486.414,281.445L475.832,281.469C474.651,281.445 473.722,281.091 473.291,280.31C472.994,279.771 471.571,269.077 474.351,268.202C476.012,267.679 486.409,267.185 488.075,268.55C488.854,269.188 488.786,270.715 488.786,271.707C491.836,271.707 491.265,271.86 491.164,270.703C491.034,269.227 491.475,268.201 490.014,266.779C488.157,264.971 480.89,265.484 477.688,265.484C471.303,265.484 470.77,266.709 470.189,270.767L469.952,274.903ZM395.627,272.38L395.627,271.034C394.087,271.034 393.441,270.821 393.441,271.539L393.441,283.818L395.627,283.818C395.627,274.225 394.902,272.885 401.176,272.885C406.37,272.885 405.548,274.494 405.548,280.285C405.548,284.31 405.069,283.818 407.398,283.818C408.221,283.818 407.903,282.107 407.903,280.454C407.903,274.203 407.566,272.885 413.284,272.885C418.866,272.885 417.824,274.855 417.824,283.818L420.01,283.818L420.01,275.071C420.01,270.285 414.556,270.866 411.434,270.866C409.82,270.866 407.725,271.489 407.398,272.716C406.448,272.462 407.011,272.096 405.384,271.367C403.888,270.697 398.499,270.63 397.189,271.251C396.489,271.583 396.168,272.017 395.627,272.38ZM388.228,280.117C388.228,282.393 383.426,281.799 380.661,281.799C374.321,281.799 378.084,279.108 376.289,279.108C373.952,279.108 374.271,278.803 374.271,280.79C374.271,281.689 375.201,282.79 375.782,283.147C377.492,284.198 387.07,283.985 388.505,283.421C390.5,282.637 390.697,280.891 390.377,278.809C390.229,277.847 389.653,277.261 388.821,276.832C385.665,275.208 376.794,277.635 376.794,274.903C376.794,272.421 380.181,272.885 383.184,272.885C387.459,272.885 387.309,273.29 387.724,275.071C388.493,275.071 390.078,275.377 390.078,274.566C390.078,273.053 389.551,272.156 388.485,271.618C386.341,270.537 378.475,270.656 376.697,271.274C375.739,271.606 375.218,272.042 374.838,272.947C374.227,274.399 374.32,277.031 376.3,277.751C376.811,277.937 378.693,278.209 379.324,278.259C383.618,278.595 388.228,277.121 388.228,280.117ZM119.514,265.988C119.514,267.193 119.348,267.67 120.019,267.67L128.595,267.67L128.595,283.818L131.285,283.818L131.285,267.67L140.198,267.67L140.198,265.484C134.409,265.354 127.628,265.503 121.7,265.483C120.856,265.481 119.514,265.21 119.514,265.988ZM291.875,267.165C291.875,268.009 294.855,267.67 296.415,267.67C297.975,267.67 300.955,267.332 300.955,268.175L300.955,283.818L303.477,283.818L303.477,268.175C303.477,267.787 303.594,267.67 303.982,267.67L312.558,267.67L312.558,265.484L291.875,265.484L291.875,267.165ZM248.49,272.548C248.473,271.787 248.322,271.88 248.322,271.034C246.783,271.034 246.136,270.821 246.136,271.539L246.136,283.818L248.322,283.818C248.322,281.673 248.177,275.85 248.927,274.499C249.265,273.889 250.198,273.36 250.967,273.175C252.094,272.905 253.581,272.885 254.88,272.885C260.353,272.885 259.711,274.533 259.583,282.31C259.555,284.003 259.346,283.818 261.438,283.818C261.826,283.818 261.943,283.701 261.943,283.313C261.943,280.364 262.31,276.004 261.505,273.323C260.607,270.331 255.716,270.866 252.863,270.866C249.619,270.866 249.474,271.889 248.49,272.548ZM451.119,265.484L451.119,283.818L467.934,283.818L467.934,281.631L453.81,281.631L453.81,265.484C452.976,265.484 453.065,265.324 452.346,265.346C451.906,265.359 451.871,265.465 451.119,265.484ZM334.25,271.539C334.25,273.613 334.002,279.983 334.582,281.467C334.879,282.227 335.04,282.294 335.628,282.776C337.386,284.215 340.712,283.818 343.499,283.818C344.311,283.818 345.158,283.665 345.792,283.42C346.794,283.032 346.807,282.498 347.535,282.304L347.535,283.818L349.72,283.818L349.72,271.539C349.72,270.821 349.074,271.034 347.535,271.034L347.535,277.09C347.535,281.948 345.091,281.799 340.304,281.799C337.131,281.799 336.436,280.566 336.436,277.426L336.436,271.034C334.897,271.034 334.25,270.821 334.25,271.539ZM431.613,268.007L431.613,282.136C431.613,282.921 431.094,283.818 431.949,283.818L448.428,283.818C448.428,282.278 448.642,281.631 447.924,281.631L434.135,281.631L434.135,265.484L431.949,265.484C431.143,265.484 431.613,266.164 431.613,268.007ZM183.078,283.818C185.838,283.818 185.524,284.125 186.384,282.416L191.207,274.12C191.526,273.532 191.849,273.06 192.151,272.541C193.154,270.818 193.037,271.034 190.645,271.034C190.08,271.034 189.914,271.643 189.691,272.099C189.406,272.681 189.22,272.922 188.905,273.499L186.602,277.587C186.062,278.528 184.434,281.03 184.254,281.799C183.075,280.934 178.616,271.034 177.697,271.034L175.679,271.034C175.705,272.21 178.607,276.683 179.179,277.624L181.029,280.82C181.372,281.385 181.589,281.876 181.931,282.442C182.176,282.847 182.572,283.818 183.078,283.818ZM144.738,272.38C144.738,270.905 145.018,271.034 143.056,271.034C142.669,271.034 142.552,271.151 142.552,271.539L142.552,283.818L144.738,283.818C144.738,281.439 144.379,275.523 145.636,273.952C146.53,272.835 148.997,272.885 150.623,272.885C155.661,272.885 152.755,276.921 154.323,276.921L156.004,276.921C156.004,273.97 156.135,270.866 151.8,270.866C150.195,270.866 147.585,270.686 146.298,271.25C145.396,271.645 145.394,271.94 144.738,272.38ZM355.101,272.38L355.101,271.034C353.562,271.034 352.916,270.821 352.916,271.539L352.916,283.818L355.101,283.818C355.101,274.412 354.355,272.885 360.651,272.885C362.911,272.885 364.048,273.126 364.172,275.418C364.262,277.088 363.649,276.921 366.368,276.921C366.368,275.398 366.583,273.217 365.328,271.906C363.821,270.333 357.882,270.7 356.562,271.318C355.627,271.756 355.583,272.205 355.101,272.38ZM213.682,265.484L213.682,283.818L215.532,283.818C215.919,283.818 216.036,283.701 216.036,283.313L216.036,265.988C216.036,265.038 214.393,265.484 213.682,265.484ZM368.89,271.539L368.89,283.818L371.076,283.818L371.076,271.034L369.395,271.034C369.007,271.034 368.89,271.151 368.89,271.539ZM368.89,265.484C368.89,268.6 368.522,268.175 370.572,268.175C371.333,268.175 371.076,267.311 371.076,265.484C370.425,265.469 370.51,265.363 370.068,265.364C369.655,265.365 369.555,265.484 368.89,265.484ZM199.927,272.636L205.36,272.636C207.123,272.636 208.566,273.988 208.566,276.167L196.722,276.167C196.722,274.597 197.951,272.636 199.927,272.636ZM194.512,276.753C194.512,284.694 198.409,283.818 205.61,283.818C207.265,283.818 209.403,283.408 210.252,282.069C210.51,281.662 211.399,279.781 210.319,279.781C207.035,279.781 209.265,280.564 207.561,281.395C206.838,281.748 198.847,282.554 197.484,280.508L197.295,280.193C197.021,279.662 196.475,277.931 197.371,277.931L210.823,277.931C210.823,274.136 210.337,270.866 204.938,270.866C201.007,270.866 196.024,270.118 194.942,274.155C194.72,274.981 194.512,275.809 194.512,276.753" style="fill:white;"/>
                    </g>
                </g>
                <g transform="matrix(1.101174,0,0,1.101174,-1348.324051,109.697737)">
                    <g transform="matrix(0.946953,0,0,1.818149,12260.96141,-607.300752)">
                        <path d="M228.648,519.945L228.648,520.45C230.069,520.781 231.957,519.672 233.18,518.927L246.554,512.625C248.387,511.737 251.008,510.867 252.954,510.281L262.878,507.593C263.464,507.506 264.205,507.421 264.741,507.27C265.248,507.127 264.894,507.152 265.503,507.022L268.221,506.621C269.251,506.593 268.551,506.489 269.366,506.347C269.598,506.307 269.777,506.324 270.009,506.315C271.193,506.269 272.739,506.224 273.993,505.927L286.66,505.649C287.401,505.717 287.408,505.984 287.839,505.984L290.576,506.106C291.581,506.231 292.563,506.182 293.507,506.369L299.086,507.349C300.946,507.563 302.53,507.947 304.272,508.554C305.139,508.856 306.048,508.849 306.866,509.154L309.487,509.897C310.383,510.196 311.088,510.267 311.943,510.636C312.435,510.85 312.657,510.868 313.098,510.995L314.306,511.48C314.349,511.497 314.756,511.661 314.766,511.664L315.444,511.862C315.745,511.985 315.394,511.847 315.758,512.021L323.249,514.97C324.59,515.487 325.67,516.047 327.072,516.436C328.675,516.881 330.205,517.671 331.766,518.225C331.806,518.239 331.851,518.254 331.891,518.268L336.121,519.587C336.679,519.765 336.683,519.841 337.374,520.016L344.135,521.999C344.37,522.069 344.456,522.08 344.811,522.165C345.212,522.261 345.682,522.44 346.104,522.554L355.293,524.631C356.345,524.889 357.841,524.826 358.944,525.016L361.083,525.4C362.432,525.589 364.267,525.613 365.439,525.921C365.931,526.049 366.5,526.003 367.043,525.998C368.634,525.981 370.401,526.224 372.091,526.174C372.921,526.149 372.931,526.02 373.762,525.995C376.004,525.928 375.282,526.226 377.353,525.718C378.717,525.385 381.005,525.484 382.502,525.319L388.758,524.007L392.964,522.495C393.306,522.345 392.99,522.43 393.574,522.264C395.274,521.781 399.37,519.504 400.549,518.644C400.982,518.328 401.267,518.239 401.715,517.961C402.133,517.703 402.407,517.491 402.813,517.209C402.938,517.123 403.238,516.933 403.318,516.873L404.093,516.135C404.118,516.111 404.155,516.077 404.18,516.053L404.353,515.89C406.053,514.349 407.146,513.703 408.775,511.566C408.796,511.538 408.828,511.501 408.85,511.473C409.038,511.234 408.882,511.466 409.079,511.198L409.467,510.577C409.748,510.147 410.012,509.906 410.281,509.541C410.571,509.15 410.685,508.815 410.999,508.408C411.451,507.82 411.58,507.979 411.77,507.161C411.393,507.414 411.015,507.592 410.642,507.883L408.645,509.418C408.615,509.438 408.573,509.464 408.543,509.484C408.513,509.504 408.469,509.528 408.438,509.547L405.278,511.264C403.836,512.028 402.339,512.961 400.801,513.514C399.391,514.02 398.133,514.842 396.674,515.273L390.443,516.778C390.025,516.836 389.326,516.907 388.858,517.043C388.284,517.209 388.826,517.144 388.053,517.246C386.71,517.424 384.783,517.372 383.642,517.712C382.801,517.963 383.038,517.883 382.01,517.93C380.298,518.008 378.125,518.26 376.386,517.997C375.177,517.814 373.832,517.944 372.581,517.935C371.305,517.927 371.229,517.609 370.215,517.637C368.989,517.67 367.138,517.34 365.855,517.262C364.568,517.183 359.317,516.047 357.875,515.657L350.242,513.535C350.024,513.461 349.902,513.433 349.596,513.328L349.14,513.174C349.112,513.167 349.063,513.159 349.035,513.153L341.886,510.625C341.589,510.498 341.512,510.419 341.335,510.335C341.051,510.202 340.923,510.179 340.582,510.079C338.65,509.509 333.165,506.977 331.192,505.847L320.268,500.55C318.589,499.994 316.258,498.658 314.164,498.154L308.212,496.371C306.703,495.775 305.186,495.55 303.561,495.135C302.267,494.805 300.834,494.782 299.564,494.424L295.414,493.697C294.546,493.697 294.136,493.669 293.51,493.583C292.263,493.412 290.952,493.606 289.688,493.538C287.042,493.395 287.1,493.297 284.299,493.528C283.655,493.582 282.937,493.501 282.289,493.536C281.543,493.576 281.483,493.686 280.606,493.703L277.212,494.181C276.749,494.266 276.659,494.31 276.41,494.366L271.367,495.392C268.787,495.882 267.22,496.637 265.063,497.137L259.125,499.22C257.126,500.01 255.101,500.796 253.219,501.799L245.872,506.057C245.373,506.38 245.255,506.448 244.706,506.74C244.026,507.102 243.68,507.551 243.06,507.953L235.903,513.41C234.827,514.278 233.925,515.361 232.83,516.223C231.912,516.945 231.469,517.711 230.589,518.354L230.388,518.49C229.65,518.977 229.207,519.795 228.648,519.945ZM223.099,498.415L223.099,499.929C223.099,500.695 223.158,499.887 223.277,500.372L223.267,502.452C223.659,502.165 224.408,500.226 224.741,499.553L227.716,494.792C228.009,494.297 227.816,494.537 228.179,494.077C228.328,493.887 228.479,493.702 228.628,493.517L232.359,488.334C232.732,487.773 232.329,488.155 232.853,487.651C233.116,487.397 233.129,487.471 233.455,487.076C233.758,486.708 233.674,486.744 233.934,486.377C234.283,485.884 234.613,485.694 234.988,485.245L240.208,479.198C242.34,477.069 247.421,471.704 249.212,470.207C249.727,469.776 249.894,469.647 250.38,469.188C250.855,468.738 251.321,468.598 251.707,468.16C252.023,467.8 251.713,467.972 252.174,467.618C252.524,467.35 252.444,467.544 252.905,467.172L257.072,463.435C258.26,462.103 259.881,460.803 261.372,459.83C261.983,459.432 262.093,459.269 262.592,458.864C262.842,458.66 262.885,458.654 263.155,458.417L263.823,457.908C264.904,457.269 265.92,456.198 266.979,455.514C267.305,455.304 267.332,455.243 267.639,454.997L271.403,452.034C271.724,451.747 272.256,451.302 272.627,451.072L280.541,445.195C280.571,445.175 280.614,445.15 280.645,445.131L285.72,441.63C286.106,441.387 286.055,441.364 286.4,441.132C286.695,440.935 286.847,440.871 287.134,440.689L293.748,436.204C293.996,436.012 294.145,435.881 294.432,435.71L312.533,423.708C312.939,423.478 312.87,423.565 313.281,423.279C313.53,423.105 313.718,422.943 313.948,422.768L316.532,421.148C317.717,420.444 318.831,419.438 320.046,418.776L324.865,415.691C325.33,415.37 325.754,415.152 326.202,414.841L337.761,407.229C338.037,407.049 338.181,406.941 338.457,406.747C341.546,404.573 343.631,403.5 347.084,400.911L354.83,395.371C355.228,395.054 355.129,395.213 355.551,394.915C356.001,394.597 356.399,394.177 356.873,393.883C357.276,393.632 357.073,393.816 357.496,393.497L367.082,386.097C368.679,384.673 370.528,383.5 372.043,381.976C372.258,381.759 372.331,381.657 372.572,381.496L373.817,380.555C374.125,380.293 374.165,380.318 374.48,380.041L379.551,375.189C379.576,375.165 379.61,375.128 379.634,375.103L381.334,373.272C380.739,373.43 380.277,373.999 379.722,374.35C379.317,374.607 379.238,374.585 378.86,374.834L373.209,378.601C372.745,378.869 372.796,378.929 372.409,379.146C371.088,379.889 369.536,381.151 368.301,381.765L361.663,385.89C361.467,386.004 361.479,386.001 361.248,386.147L360.394,386.639C358.276,387.95 356.02,389.072 353.932,390.436L351.412,391.952C351.105,392.136 350.899,392.26 350.56,392.445L346.526,394.802C346.494,394.82 346.451,394.845 346.419,394.864C346.387,394.882 346.346,394.907 346.314,394.926C345.666,395.307 345.303,395.55 344.625,395.928L342.956,396.95C342.814,397.031 342.685,397.071 342.506,397.173L340.271,398.469C339.73,398.729 339.882,398.623 339.414,398.958L329.274,404.962C328.887,405.201 328.768,405.218 328.401,405.435C327.997,405.674 327.913,405.773 327.467,406.014C326.768,406.391 326.453,406.664 325.785,407.023L322.38,409C321.778,409.362 321.346,409.74 320.764,410.074C320.375,410.297 320.261,410.28 319.865,410.521L309.771,416.572C309.418,416.771 309.224,416.85 308.896,417.042L307.743,417.739C307.712,417.758 307.67,417.783 307.638,417.802L295.352,425.192C294.967,425.431 294.862,425.521 294.545,425.731L289.151,429.082C289.048,429.145 288.87,429.233 288.718,429.322C288.383,429.518 288.239,429.626 287.913,429.863L273.546,438.703C273.857,437.535 276.037,436.369 276.969,435.404L278.207,434.45C278.494,434.218 278.607,434.038 278.902,433.8C279.439,433.367 279.858,432.878 280.324,432.532C280.826,432.16 280.634,432.439 281.131,431.993L294.973,420.272C295.557,419.813 295.875,419.503 296.44,419.048L305.134,411.765C305.352,411.6 305.307,411.657 305.539,411.498L314.028,404.514C314.769,403.785 316.091,402.57 316.96,402.065C317.613,401.685 317.812,401.306 318.458,400.871C319.47,400.188 320.233,399.081 321.273,398.473C322.265,397.894 324.651,395.444 325.553,394.681C326.156,394.171 326.447,394.11 327.061,393.497L330.587,390.297C331.166,389.781 331.577,389.695 332.099,389.118L336,385.619C336.014,385.607 336.309,385.325 336.344,385.29L342.616,379.454C343.075,378.99 343.419,378.655 343.876,378.191L345.622,376.741C345.647,376.717 345.681,376.681 345.706,376.657L350.074,372.28C351.511,370.113 353.924,368.187 355.631,366.064C355.653,366.037 355.685,365.999 355.708,365.973L356.812,364.891C356.961,364.755 357.017,364.722 357.161,364.567C357.609,364.084 357.875,363.548 358.336,363.051C359.295,362.02 360.465,361.094 361.234,359.894L361.806,359.12C361.92,358.996 362.02,358.895 362.128,358.77L363.341,357.292C362.665,357.473 362.636,357.836 362.117,358.255C361.793,358.517 361.798,358.442 361.502,358.648L360.374,359.706C359.992,359.976 360.096,359.816 359.681,360.191L351.955,366.592C350.126,368.091 348.428,369.67 346.458,371.018L337.009,378.05C336.68,378.294 336.709,378.325 336.345,378.563L335.657,379.052C335.629,379.074 335.592,379.106 335.564,379.128L332.591,381.368C332.159,381.717 331.79,381.958 331.355,382.318L324.992,387.055C324.961,387.075 324.92,387.1 324.889,387.12L317.42,392.601C316.586,393.152 315.814,393.988 314.944,394.497L299.288,406.254C298.871,406.528 299.011,406.33 298.56,406.703L279.487,421.77C278.678,422.396 277.938,423.276 277.106,423.762C276.041,424.383 275.126,425.566 274.17,426.375C273.722,426.753 273.367,426.919 272.943,427.335C272.919,427.36 272.884,427.395 272.86,427.42L267.15,432.473C265.193,433.723 261.816,437.734 259.706,439.325L258.304,440.613C258.28,440.638 258.247,440.676 258.223,440.701L258.056,440.871C257.46,441.468 256.981,442.174 256.286,442.632C254.945,443.515 252.081,446.304 251.255,447.524L250.246,448.701C249.803,449.156 249.598,449.393 249.155,449.796L246.87,452.051C246.345,452.604 246.411,452.784 245.93,453.298L243.205,456.46C242.225,457.419 240.759,459.434 239.841,460.495C238.244,462.34 236.88,464.039 235.533,466.111C235.514,466.141 235.487,466.182 235.467,466.213L233.424,469.216C231.949,471.452 230.502,473.854 229.355,476.247C228.904,477.189 228.203,478.068 227.844,479.108C227.173,481.046 226.62,481.533 225.62,484.621L225.051,486.239C224.936,486.698 224.882,486.797 224.755,487.12L223.582,492.17C223.4,493.025 223.25,492.799 223.262,494.037C223.276,495.511 223.099,496.75 223.099,498.415" style="fill:white;"/>
                    </g>
                    <g transform="matrix(0.946953,0,0,1.818149,12260.96141,-447.303978)">
                        <path d="M281.785,395.95L281.785,372.233C281.785,370.541 280.094,372.33 279.402,372.708L262.064,384.465C261.479,385.028 260.978,385.433 260.389,385.985C260.032,386.319 259.909,386.347 259.552,386.662L257.041,388.692C255.912,389.593 254.966,390.811 253.801,391.674L249.121,396.076C247.598,397.599 245.854,398.961 244.48,400.684C243.846,401.479 242.849,402.157 242.243,402.988C241.179,404.449 240.082,405.052 239.322,406.29C239.06,406.717 238.924,406.745 238.62,407.102C237.64,408.25 236.891,409.44 235.837,410.541C234.192,412.259 231.267,416.197 229.711,418.207L225.585,424.789C225.576,424.94 225.066,424.977 225.765,424.968C226.393,424.961 229.879,420.878 230.869,420.206C231.513,419.77 231.267,419.861 231.754,419.409L235.847,415.935C236.222,415.732 236.382,415.64 236.769,415.342C237.096,415.091 237.291,414.942 237.654,414.714C237.696,414.687 237.824,414.617 237.865,414.588L242.261,411.585C242.968,411.17 243.314,410.743 243.998,410.295L249.298,407.186C249.637,407.011 249.503,407.067 249.812,406.859C250.231,406.575 250.339,406.569 250.813,406.346C251.166,406.179 251.345,406.036 251.804,405.824C251.958,405.753 252.093,405.699 252.27,405.617L255.033,404.345C255.311,404.209 255.151,404.26 255.479,404.118L263.24,401.116C263.589,400.989 263.489,400.997 263.825,400.86L268.43,399.411C268.927,399.288 269.225,399.257 269.663,399.131C269.793,399.093 270.004,399.032 270.177,398.972C271.982,398.34 275.61,397.77 277.19,397.528C279.605,397.157 281.785,397.402 281.785,395.95" style="fill:white;"/>
                    </g>
                </g>
            </g>
        </g>
    </g>
</svg>
