<?xml version="1.0" encoding="UTF-8" standalone="no"?><!DOCTYPE svg PUBLIC "-//W3C//DTD SVG 1.1//EN" "http://www.w3.org/Graphics/SVG/1.1/DTD/svg11.dtd"><svg width="100%" height="100%" viewBox="0 0 72 92" version="1.1" xmlns="http://www.w3.org/2000/svg" xmlns:xlink="http://www.w3.org/1999/xlink" xml:space="preserve" xmlns:serif="http://www.serif.com/" style="fill-rule:evenodd;clip-rule:evenodd;stroke-linejoin:round;stroke-miterlimit:2;"><g><path d="M45.5,82.998l-23.434,0c-7.857,0 -14.286,-6.43 -14.286,-14.287l0,-54.423c0,-7.859 6.429,-14.288 14.286,-14.288l23.434,0c7.857,0 14.287,6.429 14.287,14.288l0,54.423c0,7.857 -6.43,14.287 -14.287,14.287" style="fill:#df2e36;fill-rule:nonzero;"/><path d="M57.218,0.816l-46.766,0c-0.863,0 -1.565,0.7 -1.565,1.561l0,78.24c0,0.858 0.702,1.561 1.565,1.561l46.766,0c0.858,0 1.561,-0.703 1.561,-1.561l0,-78.24c0,-0.86 -0.703,-1.561 -1.561,-1.561" style="fill:#042631;fill-rule:nonzero;"/><path d="M57.015,1.171l-46.362,0c-0.855,0 -1.546,0.687 -1.546,1.53l0,77.597c0,0.846 0.691,1.523 1.546,1.523l46.362,0c0.858,0 1.552,-0.677 1.552,-1.523l0,-77.597c0,-0.843 -0.694,-1.53 -1.552,-1.53m0,-1.022c1.439,0 2.58,1.135 2.58,2.552l0,77.597c0,1.401 -1.141,2.551 -2.58,2.551l-46.362,0c-1.429,0 -2.587,-1.15 -2.587,-2.551l0,-77.597c0,-1.417 1.158,-2.552 2.587,-2.552l46.362,0Z" style="fill:#df2e36;fill-rule:nonzero;"/><path d="M0.519,14.706c0,0 12.001,13.111 30.827,20.698c22.691,9.156 38.626,8.36 38.626,8.36c0,0 -19.35,4.286 -33.43,16.925c-14.7,13.186 -23.35,28.927 -23.35,28.927c0,0 1.541,-19.543 -0.506,-35.545c-2.303,-18.139 -12.167,-39.365 -12.167,-39.365" style="fill:#9dafb9;fill-rule:nonzero;"/><path d="M13.058,91.061c-0.06,0 -0.125,-0.011 -0.174,-0.014c-0.16,-0.032 -0.32,-0.17 -0.389,-0.31c-0.075,-0.139 -0.08,-0.272 -0.08,-0.401c0,-0.424 0.144,-0.947 0.229,-1.556c0.494,-3.514 1.823,-12.836 1.699,-23.088c-0.07,-6.14 -0.667,-12.593 -2.234,-18.316c-3.188,-11.535 -9.628,-26.41 -11.576,-31.017c-0.128,-0.302 -0.242,-0.548 -0.351,-0.773c-0.09,-0.214 -0.163,-0.393 -0.181,-0.625c-0.017,-0.208 0.134,-0.477 0.338,-0.571c0.095,-0.059 0.221,-0.092 0.33,-0.092c0.191,0 0.365,0.076 0.479,0.163c0.126,0.093 0.234,0.202 0.341,0.329c0.23,0.25 0.479,0.558 0.803,0.916c3.272,3.542 13.045,13.58 28.255,20.038c14.523,6.15 29.223,7.593 36.498,7.506c1.048,-0.01 1.937,-0.052 2.657,-0.124c0.434,-0.039 0.801,-0.081 1.111,-0.09c0.178,0 0.341,0.009 0.511,0.075c0.169,0.057 0.363,0.266 0.371,0.476c0.005,0.026 0.005,0.048 0.005,0.071c0.015,0.239 -0.169,0.442 -0.31,0.509c-0.148,0.089 -0.286,0.121 -0.45,0.166c-0.339,0.065 -0.752,0.112 -1.172,0.199c-5.07,1.032 -22.613,5.055 -34.717,16.418c-9.363,8.77 -18.824,23.997 -20.843,28.559c-0.277,0.602 -0.391,1.017 -0.685,1.344c-0.1,0.116 -0.28,0.208 -0.449,0.208l-0.016,0Z" style="fill:#fff;fill-rule:nonzero;"/><path d="M0.872,16.217c-0.375,-0.906 -0.687,-1.316 -0.353,-1.51c0.389,-0.222 0.499,0.295 1.271,1.131c3.296,3.562 13.32,13.756 28.613,20.233c16.681,7.064 33.566,7.946 39.33,7.422c0.939,-0.082 1.554,-0.202 1.601,0.142c0.048,0.345 -0.68,0.4 -1.597,0.585c-5.104,1.037 -22.725,5.018 -34.947,16.47c-9.415,8.833 -18.819,23.589 -20.872,28.549c-0.368,0.901 -0.567,1.538 -0.943,1.445c-0.392,-0.094 -0.154,-0.666 -0.01,-1.653c0.785,-5.624 3.737,-26.33 -0.511,-41.75c-3.191,-11.571 -9.632,-26.454 -11.582,-31.064" style="fill:#df2e36;fill-rule:nonzero;"/><path d="M44.815,78.317l0.005,0c0.023,-0.004 0.045,-0.016 0.059,-0.04c0.041,-0.058 0.087,-0.292 0.087,-0.359l0,-0.239c0.002,-0.105 0.002,-0.206 0.002,-0.304c0,-0.097 0,-0.191 -0.002,-0.278c-0.008,-0.519 -0.005,-0.891 -0.138,-1.045c-0.016,-0.018 -0.056,-0.044 -0.077,-0.049c-0.093,-0.017 -0.177,0.013 -0.222,0.069c-0.013,0.018 -0.033,0.061 -0.037,0.086c-0.091,0.529 0.055,0.913 0.071,1.12c0.039,0.558 0.083,0.864 0.198,1.011c0.013,0.018 0.036,0.028 0.054,0.028" style="fill:#fff;fill-rule:nonzero;"/><path d="M55.985,77.397c-0.083,-0.22 -0.145,-0.381 -0.184,-0.49c-0.019,-0.043 -0.059,-0.064 -0.097,-0.05c-0.004,0.002 -0.02,0.007 -0.048,0.007c-0.021,0 -0.043,0.007 -0.056,0.028c-0.015,0.015 -0.023,0.041 -0.022,0.068c0.006,0.25 0.01,0.444 0.011,0.568c0.009,0.249 0.05,0.445 0.131,0.586l0.06,0.04c0.041,0.004 0.076,0.008 0.105,0.008l0.019,0c0.101,-0.024 0.111,-0.079 0.183,-0.173l0.015,-0.056c0,-0.149 -0.041,-0.324 -0.117,-0.536" style="fill:#fff;fill-rule:nonzero;"/><path d="M35.787,76.197c-0.138,-0.164 -0.238,-0.227 -0.34,-0.229c-0.084,-0.004 -0.174,0.035 -0.262,0.124c-0.117,0.12 -0.242,0.307 -0.433,0.515c-0.487,0.525 -0.829,0.977 -1.028,1.368c-0.069,0.139 -0.111,0.268 -0.111,0.393c0,0.086 0.005,0.185 0.061,0.24c0.017,0.016 0.055,0.039 0.075,0.042c0.2,0.034 0.394,-0.282 0.666,-0.74c0.259,-0.431 0.414,-0.744 0.519,-0.902c0.097,-0.146 0.276,-0.501 0.429,-0.539c0.068,-0.018 0.206,0.169 0.374,0.42c0.152,0.226 0.245,0.403 0.279,0.504c-0.063,0.014 -0.16,0.031 -0.284,0.053c-0.541,0.101 -0.935,0.236 -1.193,0.418c-0.085,0.059 -0.152,0.145 -0.151,0.253c0,0.09 0.031,0.177 0.096,0.229c0.013,0.012 0.043,0.026 0.057,0.027c0.022,0.007 0.071,0.007 0.095,0c0.695,-0.166 1.192,-0.493 1.65,-0.502c0.066,0.104 0.132,0.211 0.195,0.314c0.11,0.133 0.248,0.195 0.4,0.195c0.02,0 0.04,-0.008 0.054,-0.024c0.017,-0.019 0.023,-0.043 0.023,-0.069c-0.005,-0.231 -0.181,-0.565 -0.516,-1.097c-0.314,-0.477 -0.515,-0.829 -0.655,-0.993" style="fill:#fff;fill-rule:nonzero;"/><path d="M38.776,76.837c-0.136,-0.057 -0.273,-0.081 -0.415,-0.081c-0.061,0 -0.112,0 -0.154,0.007c-0.194,0.028 -0.359,0.132 -0.411,0.325c-0.02,0.077 -0.02,0.134 -0.022,0.186c-0.004,0.108 0.045,0.244 0.153,0.25l0.042,0c0.09,0 0.194,-0.028 0.321,-0.084c0.142,-0.062 0.248,-0.108 0.321,-0.143c0.044,-0.019 0.079,-0.027 0.106,-0.025c0.039,0 0.054,0.008 0.07,0.032c0.093,0.129 0.132,0.232 0.129,0.303c0,0.034 -0.008,0.06 -0.028,0.09c-0.075,0.118 -0.171,0.252 -0.321,0.352c-0.239,0.152 -0.467,0.178 -0.617,0.178c-0.132,0 -0.207,-0.039 -0.255,-0.111c-0.133,-0.201 -0.206,-0.488 -0.211,-0.878c-0.007,-0.568 -0.009,-0.993 -0.009,-1.272c-0.018,-0.526 -0.14,-0.934 -0.371,-1.212c-0.066,-0.059 -0.135,-0.098 -0.207,-0.097c-0.089,-0.001 -0.171,0.047 -0.235,0.12c-0.064,0.077 -0.103,0.172 -0.103,0.275c0,0.086 0.026,0.176 0.066,0.258c0.247,0.492 0.39,0.935 0.439,1.338c0.055,0.465 0.114,0.927 0.176,1.38c0.081,0.277 0.233,0.461 0.445,0.557c0.148,0.066 0.305,0.103 0.468,0.103l0.01,0c0.274,0 0.533,-0.081 0.771,-0.238c0.213,-0.141 0.372,-0.324 0.443,-0.556c0.03,-0.101 0.03,-0.161 0.03,-0.233c0,-0.165 -0.05,-0.324 -0.144,-0.449c-0.13,-0.17 -0.295,-0.3 -0.487,-0.375" style="fill:#fff;fill-rule:nonzero;"/><path d="M54.723,76.837c-0.135,-0.057 -0.273,-0.081 -0.414,-0.081c-0.063,0 -0.113,0 -0.153,0.007c-0.197,0.028 -0.361,0.132 -0.414,0.325c-0.019,0.077 -0.018,0.134 -0.019,0.186c-0.006,0.108 0.044,0.244 0.151,0.25l0.041,0c0.089,0 0.193,-0.028 0.323,-0.084c0.141,-0.062 0.247,-0.108 0.32,-0.143c0.042,-0.019 0.079,-0.027 0.108,-0.025c0.037,0 0.051,0.008 0.067,0.032c0.093,0.129 0.132,0.232 0.131,0.303c0,0.034 -0.007,0.06 -0.028,0.09c-0.076,0.118 -0.174,0.252 -0.323,0.352c-0.238,0.152 -0.466,0.178 -0.614,0.178c-0.135,0 -0.209,-0.039 -0.257,-0.111c-0.134,-0.201 -0.206,-0.488 -0.211,-0.878c-0.006,-0.568 -0.009,-0.993 -0.009,-1.272c-0.017,-0.526 -0.139,-0.934 -0.372,-1.212c-0.065,-0.059 -0.134,-0.098 -0.207,-0.097c-0.088,-0.001 -0.171,0.047 -0.232,0.12c-0.067,0.077 -0.106,0.172 -0.106,0.275c0,0.086 0.025,0.176 0.069,0.258c0.244,0.492 0.389,0.935 0.438,1.338c0.055,0.465 0.113,0.927 0.177,1.38c0.079,0.277 0.229,0.461 0.442,0.557c0.148,0.066 0.306,0.103 0.468,0.103l0.011,0c0.273,0 0.534,-0.081 0.77,-0.238c0.214,-0.141 0.374,-0.324 0.443,-0.556c0.033,-0.101 0.033,-0.161 0.033,-0.233c0,-0.165 -0.051,-0.324 -0.145,-0.449c-0.132,-0.17 -0.298,-0.3 -0.488,-0.375" style="fill:#fff;fill-rule:nonzero;"/><path d="M46.243,76.359c-0.079,-0.144 -0.229,-0.293 -0.46,-0.477c-0.483,-0.384 -0.817,-0.603 -1.15,-0.603c-0.188,-0.006 -0.337,0.127 -0.386,0.338l0.02,0.091c0.059,0.071 0.14,0.107 0.239,0.127c0.103,0.014 0.176,0.026 0.228,0.031c0.145,0.06 0.31,0.134 0.48,0.223c0.4,0.211 0.66,0.479 0.794,0.803c0.042,0.095 0.06,0.195 0.061,0.308c0,0.079 -0.012,0.17 -0.033,0.265c-0.136,0.273 -0.349,0.583 -0.632,0.897c-0.123,0.138 -0.384,0.399 -0.78,0.777c-0.001,0 -0.004,0.004 -0.006,0.005c-0.042,0.04 -0.033,0.065 -0.034,0.069l0,0.009c0.01,0.07 0.012,0.046 0.028,0.09l0.083,0.051c0.32,-0.061 0.657,-0.37 1.089,-0.851c0.946,-1.06 0.577,-1.934 0.459,-2.153" style="fill:#fff;fill-rule:nonzero;"/><path d="M49.537,78.243c-0.035,-0.042 -0.073,-0.069 -0.111,-0.095c-0.012,-0.01 -0.034,-0.022 -0.047,-0.024c-0.128,-0.032 -0.208,-0.058 -0.255,-0.163c-0.05,-0.111 -0.126,-0.346 -0.183,-0.453c-0.143,-0.266 -0.334,-0.376 -0.515,-0.376c-0.09,0 -0.178,0.036 -0.256,0.095c-0.215,0.17 -0.397,0.385 -0.6,0.562c-0.161,0.144 -0.313,0.186 -0.366,0.18c-0.034,-0.004 -0.019,0.004 -0.027,-0.016c-0.046,-0.135 -0.05,-0.34 -0.05,-0.592l0,-0.152c0.006,-0.178 0.059,-0.47 0.163,-0.856c0.102,-0.385 0.157,-0.685 0.157,-0.909c0,-0.053 0.006,-0.106 -0.003,-0.157c-0.005,-0.014 -0.013,-0.04 -0.019,-0.051c-0.069,-0.131 -0.152,-0.205 -0.255,-0.201c-0.164,0 -0.217,0.193 -0.235,0.411c-0.058,0.719 -0.079,1.227 -0.1,1.522c-0.021,0.306 -0.051,0.516 -0.065,0.632c-0.013,0.094 -0.017,0.194 -0.017,0.295c0,0.117 -0.009,0.231 0.028,0.327c0.078,0.215 0.229,0.293 0.364,0.294c0.058,0.003 0.117,-0.017 0.172,-0.051c0.124,-0.078 0.28,-0.212 0.479,-0.408c0.201,-0.198 0.357,-0.333 0.451,-0.402c0.055,-0.036 0.106,-0.054 0.161,-0.054c0.072,-0.001 0.219,-0.011 0.246,0.128c0.003,0.017 0.028,0.118 0.071,0.27c0.121,0.417 0.262,0.69 0.465,0.796c0.023,0.01 0.049,0.02 0.08,0.02c0.129,-0.002 0.241,-0.108 0.298,-0.288c0.005,-0.016 0.01,-0.047 0.01,-0.062c0.001,-0.026 0.009,-0.076 -0.005,-0.141c-0.005,-0.023 -0.024,-0.066 -0.036,-0.081" style="fill:#fff;fill-rule:nonzero;"/><path d="M52.637,77.661c-0.04,-0.026 -0.037,-0.027 -0.279,-0.137c-0.163,-0.067 -0.2,-0.067 -0.227,-0.067c-0.16,0 -0.325,0.067 -0.492,0.186c-0.243,0.178 -0.422,0.31 -0.542,0.4c-0.217,0.158 -0.4,0.276 -0.544,0.345c-0.048,0.024 -0.088,0.034 -0.123,0.034c-0.052,-0.004 -0.086,-0.022 -0.122,-0.075c0.003,-0.199 0.095,-0.332 0.345,-0.43c0.151,-0.055 0.27,-0.096 0.348,-0.125c0.142,-0.062 0.254,-0.153 0.336,-0.275l0.015,-0.066c-0.006,-0.098 -0.026,-0.181 -0.069,-0.249l-0.053,-0.034c-0.026,-0.005 -0.051,-0.007 -0.079,-0.007c-0.23,0 -0.487,0.137 -0.781,0.392c-0.306,0.268 -0.48,0.512 -0.482,0.779c-0.002,0.137 0.031,0.265 0.098,0.371c0.072,0.112 0.182,0.18 0.304,0.18l0.004,0c0.2,-0.006 0.414,-0.072 0.648,-0.199c0.119,-0.065 0.306,-0.194 0.564,-0.389c0.246,-0.185 0.428,-0.302 0.543,-0.353c0.019,-0.006 0.043,-0.014 0.077,-0.014c0.043,0.003 0.066,0.014 0.089,0.043c0.06,0.072 0.11,0.139 0.147,0.203c0.067,0.11 0.145,0.188 0.246,0.188c0.101,-0.003 0.18,-0.075 0.283,-0.194l0.022,-0.063c0.001,-0.189 -0.107,-0.341 -0.276,-0.444" style="fill:#fff;fill-rule:nonzero;"/><path d="M42.572,77.413c-0.041,-0.026 -0.036,-0.028 -0.279,-0.136c-0.164,-0.067 -0.2,-0.067 -0.227,-0.067c-0.16,0 -0.325,0.064 -0.493,0.182c-0.241,0.179 -0.419,0.311 -0.541,0.401c-0.215,0.16 -0.398,0.273 -0.543,0.345c-0.049,0.021 -0.088,0.032 -0.123,0.032c-0.053,-0.003 -0.106,-0.008 -0.122,-0.072c-0.056,-0.188 -0.117,-0.433 0.135,-0.529c0.153,-0.056 0.012,-0.617 -0.283,-0.363c-0.306,0.265 -0.27,0.61 -0.272,0.876c-0.002,0.139 0.031,0.264 0.096,0.37c0.072,0.115 0.184,0.169 0.305,0.181c0.001,0 0.003,0.002 0.006,0.002c0.199,0.016 0.412,-0.074 0.645,-0.199c0.121,-0.067 0.308,-0.196 0.565,-0.392c0.246,-0.182 0.429,-0.299 0.544,-0.35c0.019,-0.009 0.045,-0.013 0.076,-0.013c0.043,0 0.067,0.013 0.09,0.038c0.059,0.074 0.109,0.143 0.144,0.205c0.071,0.109 0.147,0.188 0.249,0.19c0.102,-0.003 0.179,-0.077 0.282,-0.193l0.022,-0.067c0.002,-0.187 -0.108,-0.338 -0.276,-0.441" style="fill:#fff;fill-rule:nonzero;"/><path d="M55.312,76.265l0.004,0c0.123,0 0.232,-0.074 0.339,-0.2l0.022,-0.065l0.002,-0.011c-0.006,-0.078 -0.033,-0.103 -0.067,-0.155l-0.054,-0.03c-0.038,-0.006 -0.071,-0.007 -0.101,-0.01c0.013,-0.02 0.034,-0.042 0.057,-0.068l0.027,-0.066l0,-0.09l-0.042,-0.076c-0.039,-0.032 -0.083,-0.05 -0.13,-0.05c-0.048,0 -0.095,0.022 -0.134,0.053c-0.05,0.04 -0.092,0.074 -0.127,0.104c-0.086,0.112 -0.126,0.206 -0.126,0.309c0,0.097 0.043,0.188 0.112,0.251c0.062,0.067 0.139,0.104 0.218,0.104" style="fill:#fff;fill-rule:nonzero;"/><path d="M35.884,71.202l0,1.442l-0.736,0l0,-1.442l-1.089,-2.063l0.847,0l0.448,0.958c0.092,0.193 0.137,0.318 0.177,0.45c0.041,-0.101 0.111,-0.273 0.187,-0.44l0.453,-0.968l0.833,0l-1.12,2.063Z" style="fill:#fff;fill-rule:nonzero;"/><path d="M38.103,71.514c-0.469,0 -0.63,0.086 -0.63,0.394c0,0.201 0.125,0.337 0.297,0.337c0.126,0 0.252,-0.065 0.353,-0.177l0.01,-0.554l-0.03,0Zm0.575,1.261c-0.156,-0.066 -0.298,-0.181 -0.363,-0.313c-0.05,0.05 -0.106,0.1 -0.157,0.136c-0.126,0.091 -0.308,0.141 -0.519,0.141c-0.574,0 -0.888,-0.292 -0.888,-0.806c0,-0.606 0.419,-0.888 1.241,-0.888c0.05,0 0.096,0 0.151,0.006l0,-0.107c0,-0.287 -0.055,-0.383 -0.302,-0.383c-0.217,0 -0.469,0.106 -0.747,0.292l-0.286,-0.484c0.135,-0.085 0.236,-0.135 0.417,-0.211c0.253,-0.107 0.469,-0.152 0.707,-0.152c0.433,0 0.731,0.162 0.832,0.449c0.035,0.106 0.05,0.187 0.044,0.464l-0.014,0.867c-0.005,0.282 0.014,0.404 0.241,0.575l-0.357,0.414Z" style="fill:#fff;fill-rule:nonzero;"/><path d="M40.427,72.725c-0.318,0 -0.665,-0.101 -1.044,-0.297l0.242,-0.495c0.208,0.126 0.565,0.293 0.857,0.293c0.192,0 0.343,-0.126 0.343,-0.293c0,-0.176 -0.126,-0.267 -0.398,-0.318l-0.303,-0.055c-0.171,-0.03 -0.383,-0.151 -0.474,-0.262c-0.09,-0.112 -0.145,-0.297 -0.145,-0.464c0,-0.505 0.398,-0.842 0.998,-0.842c0.413,0 0.686,0.126 0.922,0.242l-0.221,0.453c-0.257,-0.13 -0.444,-0.186 -0.636,-0.186c-0.196,0 -0.328,0.101 -0.328,0.253c0,0.131 0.086,0.201 0.324,0.261l0.312,0.081c0.317,0.081 0.423,0.176 0.514,0.292c0.096,0.122 0.141,0.268 0.141,0.44c0,0.534 -0.443,0.897 -1.104,0.897" style="fill:#fff;fill-rule:nonzero;"/><rect x="42.817" y="69.139" width="0.737" height="3.505" style="fill:#fff;"/><path d="M45.177,72.725c-0.318,0 -0.665,-0.101 -1.044,-0.297l0.242,-0.495c0.207,0.126 0.565,0.293 0.857,0.293c0.192,0 0.343,-0.126 0.343,-0.293c0,-0.176 -0.126,-0.267 -0.398,-0.318l-0.303,-0.055c-0.171,-0.03 -0.383,-0.151 -0.474,-0.262c-0.09,-0.112 -0.145,-0.297 -0.145,-0.464c0,-0.505 0.398,-0.842 0.998,-0.842c0.413,0 0.686,0.126 0.922,0.242l-0.221,0.453c-0.257,-0.13 -0.444,-0.186 -0.636,-0.186c-0.196,0 -0.328,0.101 -0.328,0.253c0,0.131 0.086,0.201 0.324,0.261l0.312,0.081c0.317,0.081 0.423,0.176 0.514,0.292c0.096,0.122 0.141,0.268 0.141,0.44c0,0.534 -0.443,0.897 -1.104,0.897" style="fill:#fff;fill-rule:nonzero;"/><path d="M47.547,72.704c-0.287,0 -0.52,-0.137 -0.6,-0.353c-0.05,-0.131 -0.061,-0.212 -0.061,-0.58l0,-1.926c0,-0.337 -0.009,-0.545 -0.034,-0.777l0.69,-0.156c0.026,0.141 0.035,0.308 0.035,0.67l0,2.012c0,0.444 0.006,0.505 0.046,0.575c0.025,0.046 0.08,0.071 0.136,0.071c0.026,0 0.04,0 0.076,-0.01l0.116,0.403c-0.116,0.046 -0.258,0.071 -0.404,0.071" style="fill:#fff;fill-rule:nonzero;"/><path d="M49.579,71.514c-0.469,0 -0.63,0.086 -0.63,0.394c0,0.201 0.125,0.337 0.297,0.337c0.126,0 0.251,-0.065 0.352,-0.177l0.011,-0.554l-0.03,0Zm0.575,1.261c-0.156,-0.066 -0.298,-0.181 -0.364,-0.313c-0.049,0.05 -0.105,0.1 -0.156,0.136c-0.126,0.091 -0.308,0.141 -0.519,0.141c-0.574,0 -0.888,-0.292 -0.888,-0.806c0,-0.606 0.419,-0.888 1.241,-0.888c0.05,0 0.096,0 0.151,0.006l0,-0.107c0,-0.287 -0.055,-0.383 -0.303,-0.383c-0.216,0 -0.468,0.106 -0.746,0.292l-0.287,-0.484c0.136,-0.085 0.237,-0.135 0.418,-0.211c0.253,-0.107 0.469,-0.152 0.706,-0.152c0.434,0 0.732,0.162 0.833,0.449c0.034,0.106 0.05,0.187 0.044,0.464l-0.014,0.867c-0.005,0.282 0.014,0.404 0.241,0.575l-0.357,0.414Z" style="fill:#fff;fill-rule:nonzero;"/><path d="M52.358,72.644l0,-1.68c0,-0.291 -0.05,-0.377 -0.227,-0.377c-0.137,0 -0.312,0.091 -0.469,0.232l0,1.825l-0.675,0l0,-1.871c0,-0.222 -0.031,-0.434 -0.092,-0.605l0.6,-0.171c0.061,0.106 0.097,0.217 0.097,0.323c0.1,-0.071 0.187,-0.131 0.297,-0.192c0.136,-0.071 0.313,-0.111 0.464,-0.111c0.287,0 0.54,0.151 0.62,0.373c0.036,0.096 0.051,0.207 0.051,0.368l0,1.886l-0.666,0Z" style="fill:#fff;fill-rule:nonzero;"/><path d="M55.131,70.743c-0.126,-0.111 -0.248,-0.166 -0.368,-0.166c-0.303,0 -0.434,0.252 -0.434,0.827c0,0.554 0.116,0.735 0.47,0.735c0.126,0 0.267,-0.085 0.332,-0.166l0,-1.23Zm0.152,1.901c-0.021,-0.04 -0.031,-0.08 -0.041,-0.151c-0.166,0.145 -0.363,0.217 -0.595,0.217c-0.655,0 -1.069,-0.51 -1.069,-1.312c0,-0.806 0.448,-1.361 1.105,-1.361c0.185,0 0.332,0.045 0.458,0.146c-0.01,-0.055 -0.02,-0.232 -0.02,-0.383l0,-0.887l0.671,0.106l0,2.682c0,0.636 0.05,0.842 0.095,0.943l-0.604,0Z" style="fill:#fff;fill-rule:nonzero;"/><path d="M22.655,42.255l-0.118,0.321l6.687,1.132l5.941,3.262l0.105,-0.324l-5.903,-3.356l-6.712,-1.035Z" style="fill:#fff;fill-rule:nonzero;"/><path d="M35.166,46.971l-5.943,-3.27l-6.686,-1.126l-0.356,1.061c0,0 3.652,-0.264 6.778,0.823c3.116,1.087 5.809,3.559 5.809,3.559l0.398,-1.047Z" style="fill:#df2e36;fill-rule:nonzero;"/><path d="M28.976,44.408c-3.95,-1.364 -6.784,-0.794 -6.784,-0.794l-1.057,3.19c-0.509,1.47 -2.189,7.835 2.402,13.214c6.958,-1.364 9.586,-7.403 10.094,-8.861l1.157,-3.161c0,0 -1.867,-2.213 -5.812,-3.588" style="fill:#19171c;fill-rule:nonzero;"/><path d="M34.473,48.142c0,0 -1.599,-2.017 -5.618,-3.42c-3.999,-1.384 -6.504,-0.792 -6.504,-0.792l-0.974,2.975c-0.397,1.145 -2.328,7.405 2.282,12.774c6.933,-1.349 9.322,-7.462 9.717,-8.606l1.097,-2.931Z" style="fill:#f6ed3d;fill-rule:nonzero;"/><path d="M23.893,55.277c0,0 -0.02,-0.037 -0.055,-0.023c-0.023,0.01 -0.081,0.044 -0.119,0.021c-0.06,-0.021 -0.085,-0.037 -0.113,-0.068c-0.022,-0.02 -0.07,-0.056 -0.07,-0.056c0,0 -0.097,-0.09 -0.185,-0.121c-0.103,-0.043 -0.271,-0.054 -0.374,0.004c-0.103,0.062 -0.154,0.132 -0.154,0.132c0,0 -0.077,0.15 -0.06,0.222c0.031,0.087 0.041,0.184 0.119,0.282c0.095,0.104 0.13,0.147 0.13,0.147l0.158,0.15l0.142,0.124c0,0 0.216,0.152 0.194,0.36c-0.033,0.192 -0.237,0.393 -0.58,0.295c-0.348,-0.094 -0.457,-0.31 -0.47,-0.432c-0.019,-0.123 0.05,-0.196 0.05,-0.196l0.017,-0.033l0.025,-0.005c0,0 0.03,0.059 0.085,0.068c0.061,0.009 0.171,-0.015 0.19,-0.12c0.011,-0.114 -0.067,-0.162 -0.115,-0.185c-0.048,-0.005 -0.252,-0.013 -0.357,0.263c-0.093,0.272 0.105,0.514 0.105,0.514c0,0 0.141,0.176 0.348,0.237c0.208,0.058 0.39,0.039 0.39,0.039c0,0 0.367,-0.047 0.485,-0.373c0.125,-0.325 -0.045,-0.506 -0.045,-0.506c0,0 -0.056,-0.085 -0.106,-0.137c-0.06,-0.05 -0.199,-0.187 -0.199,-0.187l-0.138,-0.139l-0.08,-0.09l-0.042,-0.06c0,0 -0.102,-0.151 0.011,-0.243c0.114,-0.084 0.305,0.029 0.305,0.029c0,0 0.143,0.087 0.239,0.218c0.097,0.138 0.133,0.273 0.133,0.273l0.018,0.104l0.009,0.013l0.048,0c0,0 -0.005,-0.226 0.006,-0.305c0.024,-0.085 0.055,-0.216 0.055,-0.216" style="fill:#19171c;fill-rule:nonzero;"/><path d="M25.493,57.085c0,0 0.028,0.055 0.083,0.074c0.058,0.021 0.164,0.007 0.204,-0.098c0.033,-0.111 -0.068,-0.176 -0.068,-0.176c0,0 -0.151,-0.09 -0.291,0.047c-0.134,0.14 -0.146,0.303 -0.146,0.303c0,0 -0.038,0.237 0.157,0.459c0.193,0.218 0.486,0.205 0.486,0.205c0,0 0.213,0 0.443,-0.127c0.238,-0.128 0.389,-0.324 0.389,-0.324l0.111,-0.125l0.074,0.024c0,0 0.092,0.047 0.185,0.015c0.086,-0.039 0.154,-0.095 0.154,-0.095l0.02,-0.021l-0.036,-0.039c0,0 -0.08,0.053 -0.146,0.033c-0.075,-0.018 -0.136,-0.06 -0.136,-0.06l0.125,-0.156c0,0 0.125,-0.128 0.16,-0.157c0.045,-0.029 0.169,-0.116 0.169,-0.116c0,0 0.198,0.068 0.389,0.092c0.202,0.024 0.313,0.024 0.313,0.024l0.251,-0.024l0.074,-0.011l-0.006,-0.041c0,0 -0.223,0 -0.526,-0.079c-0.325,-0.069 -0.495,-0.17 -0.495,-0.17l-0.318,-0.164c0,0 -0.097,-0.061 -0.177,-0.085c-0.074,-0.037 -0.24,-0.055 -0.24,-0.055c0,0 -0.186,-0.024 -0.279,0.005c-0.088,0.029 -0.31,0.099 -0.296,0.324c0.011,0.224 0.371,0.228 0.468,0.108l0.032,-0.048l0.018,-0.026l-0.021,-0.01l-0.047,0.025c0,0 -0.154,0.059 -0.232,-0.039c-0.07,-0.108 0.025,-0.173 0.025,-0.173c0,0 0.111,-0.062 0.225,-0.043c0.129,0.017 0.304,0.119 0.304,0.119l0.184,0.114l0.102,0.055l0.042,0.026l-0.094,0.044c0,0 -0.141,0.072 -0.257,0.185c-0.113,0.113 -0.168,0.181 -0.168,0.181l-0.006,0.005c0,0 -0.096,-0.029 -0.164,0c-0.075,0.008 -0.132,0.043 -0.132,0.043l-0.038,0.033l0.02,0.046c0,0 0.06,-0.032 0.112,-0.026c0.059,0 0.091,0.036 0.091,0.036c0,0 -0.137,0.151 -0.193,0.206c-0.053,0.05 -0.148,0.153 -0.269,0.21c-0.106,0.056 -0.192,0.11 -0.388,0.076c-0.195,-0.042 -0.286,-0.207 -0.313,-0.282c-0.03,-0.065 -0.03,-0.165 -0.003,-0.236c0.014,-0.063 0.075,-0.111 0.075,-0.111" style="fill:#19171c;fill-rule:nonzero;"/><path d="M22.655,42.263l0.122,-0.376l6.729,0.991l5.894,3.396l-0.135,0.377l-5.906,-3.362l-6.704,-1.026Z" style="fill:#14a25b;fill-rule:nonzero;"/><path d="M28.539,45.172c0,0 -0.028,0.068 -0.055,0.09c-0.031,0.042 -0.079,0.054 -0.079,0.081c-0.007,0.013 0,0.061 0.04,0.095c0.033,0.035 0.044,0.053 0.076,0.079c0.033,0.021 0.068,0.066 0.098,0.045c0.027,-0.032 0.013,-0.076 0.008,-0.124c-0.013,-0.082 -0.038,-0.095 -0.061,-0.211c0,-0.026 -0.012,-0.041 -0.027,-0.055" style="fill:#47535a;fill-rule:nonzero;"/><path d="M25.823,52.049c0,0 0.218,0.288 0.317,0.502c0.055,0.107 0.095,0.243 0.119,0.233c0.047,-0.023 0.017,-0.126 -0.042,-0.261c-0.052,-0.084 -0.143,-0.279 -0.243,-0.406c-0.093,-0.121 -0.262,-0.413 -0.262,-0.413l-0.137,-0.237l-0.152,-0.276l-0.096,-0.244c0,0 -0.068,-0.193 -0.082,-0.224c-0.01,-0.051 -0.042,-0.164 -0.061,-0.258c-0.016,-0.092 -0.065,-0.238 -0.065,-0.238c-0.034,-0.081 -0.149,-0.094 -0.244,-0.205c-0.113,-0.153 -0.132,-0.237 -0.132,-0.237l-0.004,-0.026l0,-0.024l-0.068,-0.078l-0.031,-0.038c0,0 -0.032,-0.042 -0.072,-0.079c-0.025,-0.031 -0.099,-0.123 -0.099,-0.123l-0.136,-0.169c0,0 -0.05,-0.073 -0.059,-0.106c-0.031,-0.026 -0.061,-0.07 -0.061,-0.07l-0.031,-0.03l-0.036,-0.01c0,0 -0.033,-0.016 -0.076,0.01c-0.051,0.03 -0.035,0 -0.056,0.251c-0.009,0.096 -0.122,0.399 -0.128,0.502c-0.017,0.138 0.018,0.317 0.018,0.341l-0.012,0.091c0,0 -0.023,0.048 -0.023,0.085c-0.038,0.174 0.239,0.153 0.208,0.387c-0.028,0.231 -0.185,0.421 -0.185,0.421c0,0 -0.074,0.095 -0.166,0.082c-0.066,-0.011 -0.127,-0.209 -0.162,-0.356c-0.037,-0.159 -0.048,-0.342 -0.048,-0.403c0,-0.063 -0.012,-0.07 -0.012,-0.118c-0.013,-0.066 -0.051,-0.066 -0.066,-0.166c-0.002,-0.105 0.053,-0.126 0.053,-0.203c0.003,-0.053 0,-0.066 0.003,-0.126c0.01,-0.071 0.058,-0.272 0.058,-0.272l0.047,-0.193c0,0 0.012,-0.079 0.012,-0.127c0.035,-0.198 0.077,-0.384 0.077,-0.384l0.025,-0.072l0.013,-0.079c0,0 0.012,-0.032 0.032,-0.06c0.025,-0.035 0.06,-0.055 0.06,-0.055c0,0 0.051,-0.055 0.068,-0.077c0.006,-0.006 0.111,-0.072 0.111,-0.072c0,0 0.05,-0.015 0.132,-0.028c0.074,-0.013 0.116,0.004 0.116,0.004c0,0 0.029,0.009 0.136,0.064c0.116,0.05 0.326,0.192 0.381,0.224c0.047,0.04 0.113,0.079 0.145,0.121c0.106,0.132 0.153,0.106 0.078,-0.008c-0.053,-0.082 -0.066,-0.115 -0.102,-0.181c-0.027,-0.061 -0.046,-0.102 -0.077,-0.153c-0.022,-0.058 -0.067,-0.235 -0.067,-0.235l-0.032,-0.121l-0.029,-0.055l-0.013,-0.021c0,0 -0.039,-0.01 -0.083,-0.032c-0.045,-0.02 -0.085,0.032 -0.085,0.032c0,0 -0.143,0.143 -0.284,0.213c-0.208,0.119 -0.363,0.203 -0.455,0.27c-0.118,0.102 -0.147,0.241 -0.22,0.291c-0.034,0.03 -0.044,0.03 -0.064,0.056c-0.082,0.092 0.042,0.192 -0.021,0.3c-0.112,0.152 -0.588,0.185 -0.641,0.141c-0.039,-0.063 0.091,-0.279 0.127,-0.341c0.06,-0.077 0.149,-0.164 0.161,-0.172c0,0 0.025,-0.028 0.04,-0.048c0.012,-0.026 0.035,-0.078 0.037,-0.109c0.018,-0.016 0.045,-0.059 0.045,-0.059c0,0 0.013,-0.004 0.071,-0.081c0.074,-0.061 0.267,-0.203 0.425,-0.342c0.1,-0.098 0.151,-0.162 0.262,-0.251c0.09,-0.09 0.24,-0.215 0.24,-0.215c0,0 0.072,-0.069 0.099,-0.085c0.04,-0.026 0.098,-0.071 0.155,-0.111c0.063,-0.05 0.088,-0.083 0.161,-0.12c0.047,-0.023 0.091,-0.035 0.152,-0.035c0.096,0 0.145,0.042 0.226,0.09c0.072,0.058 0.128,0.116 0.171,0.181c0.034,0.072 0.061,0.151 0.061,0.151l0.017,0.042l0.013,0.012l0.039,0.059l0.093,0.12c0,0 0.222,0.306 0.227,0.323l0.065,0.081c0.013,0.013 0.124,-0.048 0.317,-0.103c0.219,-0.055 0.274,-0.028 0.342,-0.034c0.07,-0.011 0.111,-0.031 0.164,-0.068c0.095,-0.051 0.107,-0.08 0.211,-0.145c0.111,-0.063 0.203,-0.098 0.203,-0.098c0,0 0.021,-0.01 0.212,-0.123c0.196,-0.111 0.301,-0.206 0.301,-0.206l0.133,-0.121c0,0 0.188,-0.198 0.262,-0.277c0.056,-0.086 0.081,-0.115 0.081,-0.115c0,0 0.005,-0.029 0.005,-0.076c-0.022,-0.072 -0.052,-0.059 -0.113,-0.064c-0.105,-0.01 -0.148,-0.061 -0.259,-0.107c-0.078,-0.05 -0.128,-0.103 -0.214,-0.14c-0.088,-0.058 -0.138,-0.095 -0.232,-0.115l-0.054,-0.006c-0.073,0 -0.084,0 -0.141,0.006c-0.052,0.007 -0.084,0.007 -0.141,-0.017c-0.031,-0.011 -0.059,-0.021 -0.077,-0.04c-0.023,-0.015 -0.031,-0.028 -0.053,-0.05c0,-0.02 -0.006,-0.028 -0.006,-0.028c-0.002,-0.024 -0.002,-0.024 0.006,-0.04c0.022,-0.011 0.042,-0.011 0.042,-0.011l0.029,0.006l0.084,0.005l0.156,0l0.028,-0.026c0,-0.027 -0.041,-0.037 -0.041,-0.037l-0.052,0l-0.091,-0.005c0,0 -0.084,-0.013 -0.122,-0.021c-0.05,0 -0.127,-0.022 -0.127,-0.022l-0.011,-0.002l-0.019,-0.044c0.007,-0.022 0.007,-0.037 0.007,-0.037c0.012,-0.079 0.012,-0.116 0.043,-0.179c0.013,-0.019 0.028,-0.024 0.048,-0.05c0.018,-0.011 0.026,-0.022 0.042,-0.037l0.055,-0.048l0.116,-0.081c0.028,-0.013 0.059,-0.03 0.084,-0.032c0.061,-0.005 0.088,-0.005 0.148,0.013c0.055,0.01 0.061,0.01 0.143,0.019c0.089,0.01 0.156,0 0.156,0c0,0 0.218,-0.009 0.357,-0.019c0.129,-0.013 0.209,-0.066 0.35,-0.071c0.061,0 0.102,0 0.155,0.005l0.021,-0.013c0.003,-0.018 -0.018,-0.035 -0.038,-0.035c-0.016,-0.007 -0.077,0 -0.077,-0.029c0,-0.026 0.05,-0.026 0.05,-0.026c0,0 0.027,0 0.032,-0.008c0.012,-0.009 -0.032,-0.009 -0.032,-0.009c-0.076,-0.043 -0.076,-0.064 -0.139,-0.088c-0.05,-0.045 -0.073,-0.071 -0.135,-0.089c-0.058,-0.029 -0.102,-0.029 -0.144,-0.034c-0.036,-0.003 -0.025,-0.051 -0.025,-0.051c0.122,0 0.13,0 0.194,0.016c0.052,0.019 0.094,0.04 0.094,0.04c0,0 0.087,0.032 0.105,0.018c0.029,-0.018 -0.053,-0.039 -0.089,-0.074c-0.02,-0.024 -0.073,-0.044 -0.068,-0.07c0.01,-0.019 0.035,0 0.035,0c0.033,0.013 0.056,0.018 0.081,0.018c0.041,0.008 0.041,0.008 0.116,0.021c0.057,0.02 0.137,0.079 0.137,0.079c0,0 0.089,0.076 0.13,0.111c0.04,0.037 0.08,0.068 0.08,0.068c0,0 0.071,0.039 0.126,0.024c0.07,-0.013 0.045,-0.053 0.037,-0.079c-0.008,-0.043 -0.008,-0.084 0.041,-0.145c0.053,-0.058 0.09,-0.127 0.09,-0.127c0.033,-0.007 0.046,0.061 0.063,0.1c0.065,0.116 0.168,0.198 0.229,0.427c0,0 0.048,0.008 0.173,0.068c0.134,0.064 0.202,0.256 0.22,0.306c0.019,0.039 0.065,0.05 0.065,0.05l0.053,0.037l0.232,0.079c0,0 0.113,0.021 0.157,0.068c0.05,0.021 0.163,0.174 0.073,0.19c-0.048,0.006 -0.078,-0.066 -0.114,-0.088c-0.053,-0.018 -0.072,-0.018 -0.116,-0.02c-0.099,-0.006 -0.316,-0.021 -0.258,0.034l0.01,0.008l0.035,0.018c0,0 0.088,0.048 0.124,0.082c0.067,0.063 0.092,0.108 0.152,0.184c0.034,0.032 0.047,0.061 0.087,0.089c0.038,0.024 0.07,0.022 0.113,0.046c0.05,0.033 0.067,0.052 0.115,0.087c0.055,0.068 0.073,0.123 0.124,0.197c0.032,0.034 0.05,0.047 0.064,0.092c0,0.01 0.011,0.01 0.011,0.01c-0.011,0.046 -0.058,0.012 -0.091,-0.01c-0.025,-0.016 -0.035,-0.04 -0.063,-0.06c-0.031,-0.043 -0.055,-0.076 -0.098,-0.106c-0.035,-0.016 -0.062,-0.016 -0.103,-0.026c-0.034,-0.011 -0.065,-0.011 -0.093,-0.029c-0.066,-0.014 -0.091,-0.035 -0.151,-0.074c-0.067,-0.037 -0.092,-0.076 -0.155,-0.113c-0.071,-0.042 -0.187,-0.163 -0.202,-0.09c0,0.04 0.067,0.09 0.067,0.09c0,0 0.039,0.047 0.089,0.084c0.033,0.035 0.046,0.074 0.046,0.074l0.02,0.042c0,0 0.025,0.061 0.043,0.124c0.032,0.063 0.111,0.094 0.111,0.094c0,0 0.047,0.012 0.132,0.072c0.093,0.055 0.184,0.149 0.184,0.149c0,0 0.053,0.08 0.079,0.145c0.031,0.08 -0.014,0.084 -0.014,0.084l-0.01,0.014c-0.015,0.005 -0.043,-0.087 -0.043,-0.087l-0.022,-0.047c0,0 -0.035,-0.048 -0.081,-0.079c-0.04,-0.032 -0.07,-0.03 -0.07,-0.03c0,0 -0.108,-0.007 -0.207,-0.046c-0.091,-0.027 -0.122,-0.085 -0.122,-0.085l-0.046,-0.055c0,0 -0.056,-0.116 -0.075,-0.085c-0.014,0.029 0.019,0.074 0.019,0.074c0,0 0.011,0.042 0.031,0.066c0.025,0.048 0.025,0.071 0.058,0.121c0.031,0.04 0.05,0.055 0.05,0.055c0,0 0.021,0.005 0.026,0.016l0.025,0.022c0,0 0.009,0.002 0.067,0.054c0.06,0.048 0.101,0.13 0.101,0.13l0.018,0.01l0.019,0.024c0.013,0.008 0.034,0.013 0.072,0.031c0.032,0.021 0.011,0.048 0.011,0.048l-0.011,0l-0.038,0.01c0,0 -0.04,0 -0.071,-0.01c-0.027,-0.014 -0.068,-0.048 -0.068,-0.048l-0.066,-0.055l-0.097,-0.052c-0.023,-0.013 -0.071,-0.051 -0.096,-0.069l-0.037,-0.026c0,0 -0.036,-0.027 -0.079,-0.08c-0.036,-0.02 -0.036,-0.06 -0.091,-0.096c-0.044,-0.037 -0.087,-0.048 -0.142,-0.037c-0.085,0.023 0.098,0.083 0.163,0.168c0.118,0.12 0.172,0.192 0.186,0.268c0,0.081 0.025,0.124 0.025,0.124c0,0 0.077,0.076 0.104,0.147c0.02,0.032 0.005,0.066 0.02,0.096c0.028,0.076 0.143,0.113 0.143,0.173c0,0.045 -0.099,-0.005 -0.143,-0.037c-0.091,-0.04 -0.086,-0.134 -0.163,-0.186c-0.036,-0.046 -0.069,-0.055 -0.117,-0.09c-0.093,-0.066 -0.116,-0.124 -0.191,-0.181c-0.057,-0.041 -0.131,-0.149 -0.141,-0.085c0,0.013 0.01,0.029 0.01,0.029l0.006,0.056c0,0 0.025,0.046 0.034,0.068c0.021,0.021 0.046,0.081 0.119,0.157c0.065,0.077 0.114,0.185 0.114,0.185c0,0 0.017,0.05 0.019,0.084c0,0.037 -0.002,0.037 -0.002,0.087c0.002,0.039 0.011,0.05 0.025,0.09c0.05,0.073 0.11,0.091 0.173,0.139c0.023,0.026 0.023,0.029 0.038,0.058c0.018,0.04 -0.015,0.04 -0.015,0.04c0,0 -0.089,-0.009 -0.146,-0.04c-0.075,-0.024 -0.1,-0.06 -0.163,-0.124c-0.071,-0.065 -0.071,-0.128 -0.071,-0.128c0,0 -0.027,-0.042 -0.045,-0.059c-0.012,-0.018 -0.025,-0.031 -0.065,-0.055c-0.021,-0.015 -0.044,-0.035 -0.076,-0.05c-0.037,-0.026 -0.08,-0.061 -0.08,-0.061c-0.031,-0.031 -0.071,-0.055 -0.109,-0.05c-0.1,0.017 0.066,0.111 0.109,0.19c0.025,0.03 0.025,0.061 0.032,0.1c0.021,0.032 0.021,0.048 0.033,0.079l0.045,0.037c0,0 0.031,0.041 0.086,0.097c0.043,0.058 0.09,0.169 0.09,0.169l0.008,0.087l0.018,0.05l0,0.047c0,0 0.025,0.047 0.038,0.076c0.014,0.013 0.009,0.03 0.009,0.03l-0.018,0.011c-0.029,0 -0.032,-0.004 -0.047,-0.028c-0.028,-0.01 -0.028,-0.042 -0.043,-0.063c-0.012,-0.02 -0.03,-0.068 -0.048,-0.108c-0.028,-0.031 -0.068,-0.055 -0.088,-0.065l-0.062,-0.055l-0.053,-0.056c0,0 -0.056,-0.071 -0.1,-0.1c-0.041,-0.029 -0.023,0.008 -0.023,0.008c0,0 0.014,0.071 0.052,0.111c0.028,0.055 0.096,0.112 0.055,0.128c-0.015,0.014 -0.034,-0.002 -0.055,-0.016c-0.038,-0.01 -0.07,-0.07 -0.07,-0.07c0,0 -0.012,-0.016 -0.088,-0.082c-0.071,-0.05 -0.066,0 -0.046,0.034c0.015,0.032 0.034,0.056 0.034,0.056l0.042,0.042l0.027,0.02c0,0 0.019,0 0.083,0.056c0.073,0.055 0.114,0.092 0.114,0.092c0,0 0.018,0.058 0.068,0.118c0.042,0.057 0.103,0.095 0.116,0.109c0.03,0.015 0.03,0.033 0.03,0.033c0,0 0,0.022 -0.018,0.032l-0.012,0.011l-0.013,-0.008l-0.055,-0.003c0,0 -0.079,-0.032 -0.141,-0.065c-0.056,-0.052 -0.109,-0.112 -0.109,-0.112c0,0 -0.055,-0.063 -0.1,-0.093c-0.032,-0.03 -0.104,-0.043 -0.104,-0.043c0,0 -0.035,-0.005 -0.08,-0.005c-0.043,-0.008 0,0.018 0,0.018l0.026,0.019l0.07,0.037c0,0 0.068,0.02 0.125,0.067c0.036,0.042 0.072,0.098 0.101,0.156c0.015,0.053 0.055,0.097 0.055,0.097l0.023,0.029l0.018,0.016l0,0.016l-0.015,0.014l-0.01,0.002c0,0 -0.016,-0.002 -0.031,-0.013c0,0 -0.04,-0.035 -0.069,-0.061c-0.036,-0.028 -0.041,-0.047 -0.072,-0.076c-0.037,-0.02 -0.069,-0.035 -0.082,-0.035c0,0 -0.084,-0.018 -0.139,-0.026c-0.064,-0.021 -0.108,-0.031 -0.163,-0.059c-0.082,-0.044 -0.188,-0.153 -0.204,-0.138c-0.04,0.026 0.038,0.066 0.091,0.115c0.05,0.051 0.143,0.123 0.143,0.123c0,0 0.069,0.049 0.108,0.089c0.094,0.081 0.096,0.168 0.16,0.271c0.029,0.061 0.049,0.087 0.117,0.118c0.041,0.024 0.041,0.021 0.141,0.028c0.093,0.014 0.166,-0.052 0.179,-0.007l-0.004,0.016c-0.009,0.008 -0.019,0.026 -0.019,0.026c0,0 -0.015,0.005 -0.038,0.016c-0.018,0.013 -0.086,0.019 -0.118,0.019c-0.043,0 -0.109,0 -0.214,-0.035c-0.086,-0.035 -0.199,-0.144 -0.199,-0.144l-0.08,-0.077c0,0 -0.03,-0.042 -0.055,-0.05c-0.066,-0.066 -0.119,-0.078 -0.196,-0.134c-0.053,-0.024 -0.074,-0.047 -0.11,-0.079c-0.032,-0.024 -0.02,0 -0.017,0.011c0.006,0.044 0.033,0.054 0.053,0.086c0.041,0.04 0.085,0.043 0.121,0.079c0.048,0.037 0.088,0.092 0.103,0.127c0.033,0.026 0.046,0.05 0.061,0.087l0.076,0.129l0.021,0.031c0,0 0,0.034 -0.021,0.064c-0.022,0.028 -0.044,0 -0.044,0l-0.01,-0.024l-0.022,-0.04l-0.028,-0.039c0,0 -0.029,-0.048 -0.077,-0.098c-0.059,-0.06 -0.122,-0.092 -0.122,-0.092c0,0 -0.061,-0.035 -0.073,-0.005c0,0.024 0.015,0.026 0.061,0.052c0.05,0.043 0.069,0.074 0.069,0.074c0,0 0.036,0.058 0.065,0.119c0.029,0.053 0.024,0.097 0.024,0.097c0,0 0.01,0.042 0.041,0.11c0.03,0.072 0.062,0.061 0.062,0.074c-0.022,0.026 -0.045,0.016 -0.045,0.016l-0.017,0c0,0 -0.017,-0.016 -0.031,-0.018l-0.045,-0.072l-0.073,-0.1l-0.061,-0.102c0,0 -0.035,-0.034 -0.057,-0.066c-0.025,-0.034 -0.075,-0.058 -0.093,-0.066c-0.018,-0.023 -0.071,-0.044 -0.071,-0.044c0,0 -0.05,-0.026 -0.073,-0.048c-0.04,-0.039 -0.081,-0.121 -0.081,-0.121c-0.02,-0.008 -0.056,-0.045 -0.072,-0.045c0,0 -0.066,0.087 -0.089,0.132c-0.1,0.224 -0.08,0.382 -0.059,0.622c0.018,0.341 0.261,0.834 0.261,0.834c0,0 0.08,0.082 0.103,0.137c0.081,0.124 0.217,0.299 0.317,0.524c0.103,0.184 0.196,0.497 0.196,0.497c0,0 0.065,0.18 0.065,0.311c0.018,0.145 0,0.363 0,0.363l0,0.038l0.007,0.026l0.062,0.018c0,0 0.078,0.026 0.138,0.037c0.057,0.002 0.186,-0.011 0.272,-0.024c0.092,-0.016 0.214,-0.057 0.214,-0.057c0,0 0.009,-0.009 0.143,-0.075c0.12,-0.065 0.223,-0.2 0.261,-0.245c0.05,-0.047 0.095,-0.144 0.178,-0.326c0.076,-0.173 0.113,-0.382 0.113,-0.382c0,0 0.066,-0.284 0.077,-0.376c0.014,-0.095 0.014,-0.261 0.014,-0.261c0,0 0.015,-0.145 0.025,-0.236c0.031,-0.088 0.071,-0.222 0.071,-0.222c0,0 0.022,-0.086 0.118,-0.219c0.065,-0.155 0.217,-0.273 0.217,-0.273c0,0 0.05,-0.042 0.193,-0.142c0.143,-0.074 0.177,-0.087 0.304,-0.124c0.111,-0.031 0.246,-0.085 0.277,-0.053c0.022,0.037 -0.061,0.053 -0.101,0.079c-0.083,0.035 -0.241,0.098 -0.4,0.24c-0.123,0.118 -0.201,0.203 -0.248,0.295c-0.061,0.087 -0.086,0.197 -0.097,0.237c0,0.027 0.017,0.02 0.017,0.02c0,0 0.268,-0.089 0.419,-0.173c0.172,-0.098 0.36,-0.303 0.401,-0.287c0.031,0.016 0.016,0.081 0.006,0.107c-0.078,0.106 -0.092,0.127 -0.163,0.199c-0.063,0.081 -0.125,0.1 -0.222,0.167c-0.102,0.072 -0.148,0.087 -0.236,0.195c-0.15,0.14 -0.15,0.29 -0.15,0.29c0,0 -0.008,0.084 0.016,0.108c0.056,0.018 0.257,-0.108 0.393,-0.208c0.105,-0.094 0.181,-0.197 0.231,-0.258c0.064,-0.031 0.039,0.129 0,0.208c-0.05,0.092 -0.143,0.166 -0.304,0.276c-0.145,0.099 -0.186,0.23 -0.186,0.23c0,0 -0.035,0.063 -0.092,0.194c-0.058,0.127 -0.094,0.343 -0.094,0.343c0,0 -0.019,0.174 -0.055,0.305c-0.045,0.137 -0.155,0.424 -0.34,0.611c-0.091,0.071 -0.229,0.158 -0.229,0.158c0,0 -0.11,0.056 -0.191,0.071c-0.072,0.029 -0.264,0.053 -0.264,0.053l-0.138,0l-0.018,0.013l0,0.026l0.006,0.09c0,0 -0.003,0.118 -0.013,0.203c-0.03,0.096 -0.055,0.107 -0.081,0.168c-0.035,0.055 -0.053,0.013 -0.09,0.135c-0.056,0.102 -0.025,0.168 -0.075,0.292c-0.018,0.046 -0.039,-0.091 -0.05,-0.148c-0.009,-0.129 0.05,-0.292 0.069,-0.327c0.013,-0.052 0.015,-0.094 0.015,-0.152c0.016,-0.077 0,-0.132 -0.015,-0.187c-0.019,-0.045 -0.04,-0.089 -0.04,-0.089c-0.029,0 -0.029,0.02 -0.038,0.031l0.009,0.065l0.011,0.103c0,0 0,0.067 -0.02,0.172c-0.035,0.105 -0.12,0.234 -0.12,0.234c0,0 -0.095,0.131 -0.169,0.207c-0.095,0.081 -0.251,0.177 -0.251,0.177c0,0 -0.098,0.052 -0.205,0.145c-0.097,0.092 -0.07,0.173 -0.097,0.18c-0.025,0.007 -0.053,-0.094 -0.053,-0.164c0.023,-0.055 0.036,-0.072 0.08,-0.135c0.038,-0.037 0.124,-0.107 0.124,-0.107l0.103,-0.096c0,0 0.154,-0.144 0.218,-0.255c0.066,-0.113 0.086,-0.257 0.086,-0.257c0,0 0.023,-0.034 -0.02,-0.051c-0.023,-0.016 -0.066,0.017 -0.088,0.037c-0.042,0.058 -0.005,0.058 -0.089,0.158c-0.048,0.067 -0.059,0.053 -0.079,0.108c-0.053,0.053 -0.078,0.113 -0.093,0.15c-0.021,0.042 -0.035,0.019 -0.035,0.019c0,0 -0.003,-0.084 0.02,-0.169c0.017,-0.05 0.033,-0.076 0.055,-0.118c0.025,-0.069 0.108,-0.168 0.108,-0.168c0,0 0.066,-0.1 0.091,-0.217c0.022,-0.1 0,-0.128 0,-0.128c0,0 -0.003,-0.021 -0.044,-0.035c-0.042,-0.011 -0.071,0.063 -0.071,0.063c0,0 -0.031,0.1 -0.084,0.147c-0.099,0.17 -0.193,0.238 -0.34,0.351c-0.141,0.105 -0.311,0.179 -0.403,0.205c-0.077,0.035 -0.32,0.116 -0.32,0.116l-0.277,0.066c0,0 -0.124,0.059 -0.209,0.147c-0.077,0.097 -0.1,0.169 -0.108,0.274c-0.006,0.102 0.008,0.172 0.025,0.2c0,0.029 0.024,0.093 0.016,0.156c-0.01,0.031 -0.016,0.05 -0.03,0.091c-0.003,0.029 -0.011,0.048 -0.017,0.077c-0.024,0.05 -0.024,0.087 -0.077,0.113c-0.02,0.021 -0.091,0.04 -0.091,0.04c0,0 -0.066,0.002 -0.113,0.01c-0.475,0.095 -0.663,0.195 -0.974,0.393c-0.095,0.063 -0.043,0.068 -0.145,0.144c-0.078,0.048 -0.177,0.005 -0.246,0.059c-0.08,0.081 0.057,0.236 -0.177,0.249c-0.287,0.029 -0.693,-0.2 -0.685,-0.249c0,-0.1 0.147,-0.166 0.205,-0.198c0.245,-0.132 0.405,-0.079 0.516,-0.216c0.032,-0.039 0.032,-0.068 0.21,-0.116c0.118,-0.05 0.627,-0.205 0.874,-0.347c0.082,-0.04 0.147,-0.072 0.198,-0.135c0.052,-0.071 0.008,-0.134 0.008,-0.134l-0.025,-0.142l-0.052,-0.301c0,0 -0.014,-0.137 -0.014,-0.228l0,-0.311c0,0 0.014,-0.192 0.058,-0.314c0.077,-0.244 0.085,-0.299 0.26,-0.515c0.176,-0.229 0.296,-0.229 0.525,-0.537c0.057,-0.068 0.098,-0.201 0.057,-0.213c-0.041,-0.014 -0.066,0.108 -0.109,0.168c-0.172,0.245 -0.355,0.305 -0.552,0.534c-0.118,0.161 -0.173,0.266 -0.239,0.46c-0.033,0.107 -0.033,0.083 -0.072,0.293c-0.014,0.074 -0.011,0.114 -0.011,0.19c-0.003,0.05 0,0.155 0,0.155c0,0 0.025,0.148 0,0.224c0,0.038 0,0.053 -0.007,0.084c-0.02,0.05 -0.038,0.063 -0.083,0.102c-0.049,0.037 -0.038,0.077 -0.137,0.064c-0.097,-0.01 -0.251,-0.124 -0.251,-0.124c0,0 -0.638,-0.476 -1.121,-0.571c-0.091,-0.019 -0.158,-0.006 -0.246,-0.034c-0.081,-0.032 -0.109,-0.11 -0.199,-0.11c0,0 -0.025,0.005 -0.043,0.01c-0.151,0.036 -0.109,0.213 -0.4,0.024c-0.186,-0.108 -0.379,-0.307 -0.309,-0.377c0.089,-0.071 0.172,-0.066 0.332,-0.071c0.193,-0.021 0.442,0.089 0.492,0.1c0.069,0.024 0.163,0 0.273,0.041c0.182,0.075 0.211,0.098 0.211,0.098l0.306,0.132l0.598,0.221c0,0 0.111,0.032 0.156,0.032c0.039,0.008 0.104,-0.066 0.149,-0.1c0.028,-0.021 0.028,-0.09 0.028,-0.09l-0.006,-0.031l-0.022,-0.122l-0.045,-0.212l-0.038,-0.275c0,0 -0.016,-0.196 -0.027,-0.313c0,-0.113 -0.014,-0.189 0.014,-0.313c0.01,-0.119 0.018,-0.216 0.051,-0.308c0.034,-0.131 0.083,-0.269 0.156,-0.369" style="fill:#19171c;fill-rule:nonzero;"/><path d="M29.784,53.194c0.161,-0.127 0.224,-0.253 0.307,-0.456c0.075,-0.142 0.116,-0.395 0.116,-0.395l-0.003,-0.023c0,0 0,-0.034 -0.038,0c-0.01,0.029 -0.02,0.058 -0.02,0.058c0,0 -0.07,0.36 -0.264,0.602c-0.188,0.238 -0.427,0.28 -0.525,0.369c-0.147,0.103 0.278,-0.057 0.427,-0.155" style="fill:#fff;fill-rule:nonzero;"/><path d="M28.286,53.268c0,0 -0.058,-0.008 -0.073,0.048c-0.021,0.047 -0.021,0.089 -0.038,0.155c-0.03,0.086 -0.135,0.142 -0.096,0.187c0.052,0.079 0.245,-0.253 0.245,-0.309c-0.01,-0.063 -0.022,-0.081 -0.038,-0.081" style="fill:#fff;fill-rule:nonzero;"/><path d="M26.536,55.432c0,0 -0.005,-0.024 -0.045,-0.024c-0.035,0 -0.041,0.042 -0.041,0.042c0,0 -0.019,0.021 0.006,0.035c0.027,0.008 0.085,-0.029 0.085,-0.029l-0.005,-0.024Z" style="fill:#fff;fill-rule:nonzero;"/><path d="M25.48,55.735l0,0.008l0.019,0.007c0,0 0.188,-0.07 0.299,-0.11c0.121,-0.068 0.306,-0.156 0.306,-0.156c0,0 0.015,-0.013 0.002,-0.02c0,0 -0.035,-0.013 -0.055,-0.008c-0.028,0 -0.037,0.008 -0.037,0.008c-0.039,0.013 -0.095,0.049 -0.095,0.049l-0.149,0.059l-0.088,0.047l-0.095,0.044l-0.042,0.017l-0.014,0.022l-0.021,0.011l-0.011,0.004l-0.006,0.015l-0.013,0.003Z" style="fill:#fff;fill-rule:nonzero;"/><path d="M25.185,55.806c0,0 -0.021,-0.015 -0.045,-0.015c-0.025,0 -0.066,0.039 -0.082,0.039c0,0 -0.019,0.007 -0.019,0.034c0,0.016 0.046,0.005 0.046,0.005c0.02,0 0.067,-0.026 0.067,-0.026c0,0 0.033,-0.002 0.033,-0.037" style="fill:#fff;fill-rule:nonzero;"/><path d="M24.524,56.119c0,0 0,-0.042 -0.027,-0.028c-0.046,0.012 -0.064,0.012 -0.101,0.026l-0.042,0.039c-0.018,0.011 -0.054,0.048 0,0.079c0.079,0.034 0.048,-0.05 0.079,-0.066c0.036,-0.013 0.091,0.016 0.091,0.016c0.013,-0.037 0,-0.066 0,-0.066" style="fill:#fff;fill-rule:nonzero;"/><path d="M23.561,53.61c0,0 -0.055,-0.005 -0.073,0.016l0.018,0.047c0,0 0.023,0.026 0.069,0.013c0.036,-0.016 0.049,-0.032 0.049,-0.032c0,0 0.028,-0.026 -0.063,-0.044" style="fill:#fff;fill-rule:nonzero;"/><path d="M24.469,53.894c0,0 0.005,-0.023 -0.035,-0.037c-0.038,-0.007 -0.042,0 -0.042,0c0,0 -0.011,0.026 0.025,0.037c0.035,0.011 0.052,0.022 0.052,0" style="fill:#fff;fill-rule:nonzero;"/><path d="M25.327,54.216c-0.07,-0.029 -0.053,-0.013 -0.1,-0.029c-0.089,-0.019 -0.121,-0.037 -0.209,-0.072c-0.1,-0.044 -0.269,-0.133 -0.269,-0.133c0,0 -0.01,-0.011 -0.035,0c0,0 0.01,0.05 0.027,0.068c0.133,0.09 0.141,0.09 0.244,0.118c0.05,0.019 0.074,0.026 0.131,0.035c0.071,0.028 0.1,0.047 0.18,0.055c0.031,0 0.054,-0.027 0.031,-0.042" style="fill:#fff;fill-rule:nonzero;"/><path d="M25.854,54.242c0,0 0,-0.026 -0.05,-0.026c-0.025,0.015 -0.066,0.041 -0.066,0.041c0,0 -0.014,0.016 0.028,0.024l0.057,0c0,0 0.041,-0.018 0.031,-0.039" style="fill:#fff;fill-rule:nonzero;"/><path d="M27.449,48.308c0,0 0.277,-0.116 0.502,-0.327c0.144,-0.112 0.3,-0.452 0.197,-0.395c-0.042,0.03 -0.138,0.211 -0.251,0.32c-0.158,0.162 -0.448,0.367 -0.448,0.367c0,0 -0.086,0.057 0,0.035" style="fill:#fff;fill-rule:nonzero;"/><path d="M26.472,48.505c0,0 -0.029,0.005 -0.029,0.039c0,0.035 0.052,0.013 0.052,0.013c0,0 0.104,0 0.215,0.027c0.088,0.024 0.223,0.113 0.223,0.113l0.073,0.046l0.038,0.039c0,0 0.03,0.05 0.058,0.039c0.016,-0.011 -0.077,-0.187 -0.21,-0.257c-0.224,-0.107 -0.415,-0.059 -0.415,-0.059l-0.005,0Z" style="fill:#fff;fill-rule:nonzero;"/><path d="M25.212,48.99c0.005,0.026 0.143,-0.1 0.243,-0.166c0.074,-0.05 0.204,-0.142 0.204,-0.142c0,0 0.053,-0.035 -0.027,-0.029c-0.03,0 -0.122,0.029 -0.211,0.121c-0.071,0.066 -0.22,0.205 -0.209,0.216" style="fill:#fff;fill-rule:nonzero;"/><path d="M24.888,48.155c0,0 -0.031,0.05 0.022,0.153c0.039,0.098 0.035,0.166 0.093,0.132c0,0 -0.007,-0.124 -0.027,-0.16c-0.025,-0.033 -0.027,-0.075 -0.027,-0.075l-0.014,-0.013l-0.017,-0.015l-0.008,-0.022l-0.022,0Z" style="fill:#fff;fill-rule:nonzero;"/><path d="M24.874,47.529c0,0 -0.086,-0.011 -0.113,0.018c-0.022,0.026 0.081,0.04 0.081,0.04c0,0 0.066,0.029 0.076,0.005c0.014,-0.029 0,-0.037 -0.044,-0.063" style="fill:#fff;fill-rule:nonzero;"/><path d="M23.026,49.056c-0.023,-0.024 -0.061,0.048 -0.08,0.072c-0.006,0.026 -0.006,0.073 -0.006,0.073c0,0 0.069,-0.027 0.081,-0.047c0,-0.026 0.045,-0.082 0.005,-0.098" style="fill:#fff;fill-rule:nonzero;"/><path d="M23.737,50.914c0,0 -0.05,-0.068 -0.061,-0.057l0.011,0.131c0,0 0.019,0.037 0.048,0.031c0.038,0 0.038,-0.031 0.038,-0.031c0,0 -0.013,-0.05 -0.036,-0.074" style="fill:#fff;fill-rule:nonzero;"/><path d="M23.774,49.179c0,0 -0.017,0 -0.025,0.01c-0.013,0.021 -0.027,0.055 -0.038,0.092c-0.023,0.027 -0.034,0.116 -0.034,0.116c0,0 -0.019,0.066 -0.019,0.116c0,0.047 0.019,0.122 0.019,0.122c0,0 0,0.038 0.011,0.052c0.031,0 0.031,-0.029 0.031,-0.029c0,0 0.017,-0.242 0.02,-0.266c0.018,-0.071 0.058,-0.161 0.058,-0.161l0.004,-0.021c0,0 0,-0.021 -0.027,-0.031" style="fill:#fff;fill-rule:nonzero;"/><path d="M24.106,48.532c0,0 -0.028,-0.022 -0.086,0.031c-0.04,0.045 -0.053,0.084 -0.053,0.084c0,0 0.039,0.005 0.08,-0.039c0.059,-0.034 0.059,-0.055 0.059,-0.055l0,-0.021Z" style="fill:#fff;fill-rule:nonzero;"/><path d="M24.74,49.445c0,0 0.023,0.068 -0.059,0.027c-0.054,-0.041 -0.17,-0.208 -0.218,-0.261c-0.045,-0.048 -0.143,-0.103 -0.088,-0.113l0.022,-0.011l0.05,0.04l0.092,0.078c0,0 0.06,0.053 0.088,0.1c0.035,0.029 0.085,0.098 0.085,0.098l0.028,0.042Z" style="fill:#fff;fill-rule:nonzero;"/><path d="M26.122,51.838c-0.002,0.061 -0.177,-0.21 -0.268,-0.353c-0.265,-0.392 -0.492,-1.087 -0.423,-1.113c0.048,-0.027 0.114,0.295 0.271,0.661c0.177,0.389 0.42,0.766 0.42,0.805" style="fill:#fff;fill-rule:nonzero;"/><path d="M27.244,51.93c-0.119,0.048 -0.241,0.182 -0.158,0.245c0.039,0.032 0.078,-0.108 0.153,-0.156c0.045,-0.021 0.078,-0.01 0.154,-0.039c0.141,-0.034 -0.011,-0.096 -0.149,-0.05" style="fill:#fff;fill-rule:nonzero;"/><path d="M27.402,50.056c-0.055,-0.035 -0.075,0.044 -0.08,0.109c-0.061,0.254 -0.017,0.493 0.072,0.725c0.056,0.148 0.235,0.432 0.279,0.41c0.013,-0.006 -0.185,-0.286 -0.264,-0.593c-0.055,-0.221 -0.04,-0.391 0,-0.542c0,0 0.041,-0.094 -0.007,-0.109" style="fill:#fff;fill-rule:nonzero;"/><path d="M27.728,45.98c-0.138,0.018 -0.347,0.002 -0.347,0.002c0,0 -0.025,0.016 0,0.033c0.184,0.037 0.247,0.037 0.347,0.031c0.116,-0.011 0.204,-0.1 0.204,-0.1c0,0 0.078,-0.052 -0.01,-0.01c-0.033,0.002 -0.116,0.031 -0.194,0.044" style="fill:#fff;fill-rule:nonzero;"/><path d="M29.253,46.02c0,0 -0.042,-0.021 -0.072,-0.011c-0.033,0.006 -0.025,0.016 -0.025,0.016c0,0 0.025,0.045 0.055,0.066c0.031,0.01 0.075,0.058 0.085,0.043c0.007,-0.033 -0.029,-0.072 -0.029,-0.099l-0.014,-0.015Z" style="fill:#fff;fill-rule:nonzero;"/><path d="M28.192,46.973c0,0.024 0.136,0.037 0.184,0.024c0.032,-0.015 0.075,-0.077 0.075,-0.077c0,0 0.033,-0.047 0.006,-0.036c-0.107,0.087 -0.265,0.084 -0.265,0.084l0,0.005Z" style="fill:#fff;fill-rule:nonzero;"/><path d="M28.3,46.689c0.078,-0.076 -0.168,0.044 -0.273,0.061c-0.061,0.005 -0.166,0.018 -0.166,0.018c0,0 -0.029,0.021 0,0.026c0.036,0.006 0.11,0.061 0.185,0.035c0.025,0 0.13,-0.079 0.13,-0.079c0,0 0.074,-0.032 0.124,-0.061" style="fill:#fff;fill-rule:nonzero;"/><path d="M28.131,47.052c0,0 0.196,0.081 0.252,0.081c0.043,0.006 0.09,-0.057 0.09,-0.057c0,0 0.04,-0.059 0.012,-0.032c-0.127,0.048 -0.354,-0.01 -0.354,0.008" style="fill:#fff;fill-rule:nonzero;"/><path d="M24.38,47.75c0,0 -0.023,-0.021 -0.08,0.024c-0.064,0.042 -0.313,0.229 -0.292,0.277c0.017,0.057 0.254,-0.164 0.311,-0.187c0.061,-0.042 0.061,-0.09 0.061,-0.09l0,-0.024Z" style="fill:#fff;fill-rule:nonzero;"/><path d="M26.391,53.489c-0.046,0.085 -0.088,0.26 -0.078,0.292c0.047,0.114 0.086,-0.111 0.116,-0.19c0.04,-0.062 0.053,-0.089 0.111,-0.152c0.105,-0.108 -0.049,-0.111 -0.149,0.05" style="fill:#fff;fill-rule:nonzero;"/><path d="M28.303,46.07c0,0 -0.056,-0.008 -0.111,-0.005c-0.055,0.005 -0.068,0.036 -0.068,0.036c0,0 -0.015,0.024 -0.015,0.037c0,0.033 0.072,0.01 0.108,0.033c0.033,0.034 0.04,0.047 0.056,0.078c0.013,0.04 0.04,0.089 0.072,0.083c0.038,-0.014 0.038,-0.067 0.038,-0.067c0,0 0,-0.103 -0.032,-0.14c-0.023,-0.05 -0.048,-0.055 -0.048,-0.055" style="fill:#fff;fill-rule:nonzero;"/><path d="M27.178,46.38c0,0 -0.027,-0.005 -0.027,0.037c-0.006,0.04 0.002,0.04 0.002,0.04c0,0 0.091,-0.014 0.091,-0.04c0.002,-0.042 -0.066,-0.037 -0.066,-0.037" style="fill:#fff;fill-rule:nonzero;"/><path d="M26.817,46.031c0,0 -0.04,-0.011 -0.075,0.031c-0.034,0.029 -0.066,0.063 -0.066,0.063c0,0 -0.031,0.046 -0.014,0.069c0.014,0.033 0.055,-0.023 0.08,-0.028c0.035,-0.004 0.035,-0.006 0.055,-0.018c0.037,-0.004 0.061,0.023 0.07,-0.014c0.025,-0.059 -0.023,-0.099 -0.05,-0.103" style="fill:#fff;fill-rule:nonzero;"/><path d="M28.408,46.015c0,0 -0.073,-0.035 -0.084,0c0,0.021 0.053,0.021 0.056,0.037c0.028,0.018 0.047,0.024 0.057,0.047c0.006,0.027 0,0.045 0,0.045c0.043,0.019 0.036,0.004 0.036,0.004c0,0 0.007,-0.072 -0.021,-0.096c-0.017,-0.032 -0.044,-0.037 -0.044,-0.037" style="fill:#fff;fill-rule:nonzero;"/><path d="M29.14,46.613c-0.028,0.031 -0.028,0.039 -0.028,0.039c0,0 -0.055,0.081 0.035,0.081c0.096,0 0.041,-0.013 0.109,-0.013c0.08,-0.01 0.077,0 0.113,0.024c0.023,0.006 0.023,0.006 0.042,0.006c0.027,0.003 0.027,-0.017 -0.014,-0.046c-0.041,-0.028 -0.093,-0.043 -0.154,-0.065c-0.042,-0.013 -0.081,-0.072 -0.103,-0.026" style="fill:#fff;fill-rule:nonzero;"/><path d="M29.287,46.318c0,0 -0.033,-0.026 -0.077,-0.016c-0.028,0.002 -0.023,0.016 -0.023,0.016c0,0 0.023,0.052 0.064,0.063c0.014,0.018 0.064,0.063 0.066,0.041c0.014,-0.023 -0.002,-0.079 -0.002,-0.079c-0.017,-0.025 -0.028,-0.025 -0.028,-0.025" style="fill:#fff;fill-rule:nonzero;"/><path d="M29.226,46.936c0,0 -0.038,-0.016 -0.065,-0.016c-0.04,0 -0.035,0.021 -0.035,0.021c0,0 0.035,0.041 0.062,0.058c0.036,0.018 0.077,0.066 0.077,0.066c0.022,-0.048 -0.012,-0.092 -0.012,-0.092c-0.002,-0.032 -0.027,-0.037 -0.027,-0.037" style="fill:#fff;fill-rule:nonzero;"/><path d="M29.166,47.15c0,0 -0.038,-0.024 -0.078,-0.016c-0.031,0.005 -0.015,0.026 -0.015,0.026c0,0 0.025,0.045 0.055,0.061c0.03,0.018 0.082,0.073 0.095,0.049c0,-0.023 -0.025,-0.072 -0.034,-0.094l-0.023,-0.026Z" style="fill:#fff;fill-rule:nonzero;"/><path d="M29.121,47.363c0,0 -0.05,-0.031 -0.088,-0.022c-0.036,0.011 -0.028,0.035 -0.028,0.035c0,0 0.028,0.048 0.066,0.068c0.04,0.019 0.096,0.074 0.102,0.056c0.009,-0.037 -0.019,-0.096 -0.031,-0.113c0,-0.024 -0.021,-0.024 -0.021,-0.024" style="fill:#fff;fill-rule:nonzero;"/><path d="M29.029,47.602c0,0 -0.038,-0.028 -0.083,-0.011c-0.041,0.011 -0.041,0.026 -0.041,0.026c0,0 0.041,0.059 0.074,0.079c0.025,0.013 0.1,0.077 0.1,0.051c0.011,-0.038 -0.023,-0.092 -0.033,-0.114c0,-0.016 -0.017,-0.031 -0.017,-0.031" style="fill:#fff;fill-rule:nonzero;"/><path d="M28.816,48.086c0,0 -0.027,-0.028 -0.077,-0.018c-0.039,0.018 -0.032,0.031 -0.032,0.031c0,0 0.041,0.055 0.063,0.076c0.041,0.016 0.103,0.072 0.109,0.043c0.005,-0.021 -0.025,-0.093 -0.025,-0.093c-0.017,-0.026 -0.038,-0.039 -0.038,-0.039" style="fill:#fff;fill-rule:nonzero;"/><path d="M28.937,47.858c0,0 -0.04,-0.037 -0.097,-0.029c-0.035,0.011 -0.035,0.04 -0.035,0.04c0,0 0.035,0.057 0.08,0.085c0.039,0.011 0.113,0.085 0.113,0.052c0.008,-0.029 -0.019,-0.1 -0.027,-0.119c-0.012,-0.018 -0.034,-0.029 -0.034,-0.029" style="fill:#fff;fill-rule:nonzero;"/><path d="M28.723,48.3c0,0 -0.044,-0.021 -0.07,-0.021c-0.035,0.013 -0.029,0.029 -0.029,0.029c0,0 0.029,0.045 0.055,0.06c0.027,0.013 0.078,0.061 0.091,0.037c0,-0.024 -0.02,-0.068 -0.022,-0.079l-0.025,-0.026Z" style="fill:#fff;fill-rule:nonzero;"/><path d="M28.613,48.503c0,0 -0.027,-0.021 -0.07,-0.021l-0.01,0.023c0,0 0.01,0.04 0.047,0.053c0.022,0.006 0.065,0.05 0.065,0.05c0.006,-0.039 -0.01,-0.079 -0.01,-0.079c-0.011,-0.024 -0.022,-0.026 -0.022,-0.026" style="fill:#fff;fill-rule:nonzero;"/><path d="M28.505,48.679c0,0 -0.03,-0.024 -0.061,-0.013l-0.009,0.015c0,0 0.009,0.035 0.04,0.053c0,0 0.058,0.04 0.058,0.026c0,-0.018 -0.007,-0.057 -0.019,-0.063l-0.009,-0.018Z" style="fill:#fff;fill-rule:nonzero;"/><path d="M28.397,48.821c0,0 -0.023,-0.013 -0.053,-0.011c-0.019,0.006 -0.019,0.013 -0.019,0.013c0,0 0.019,0.029 0.034,0.05c0.021,0.006 0.074,0.046 0.074,0.029c0.006,-0.023 -0.025,-0.063 -0.025,-0.063l-0.011,-0.018Z" style="fill:#fff;fill-rule:nonzero;"/><path d="M28.276,48.984c0,0 -0.027,-0.014 -0.048,-0.005c-0.013,0 -0.002,0.005 -0.002,0.005c0,0 0.011,0.031 0.023,0.037c0,0 0.054,0.036 0.054,0.024c0,0 -0.002,-0.035 -0.017,-0.048l-0.01,-0.013Z" style="fill:#fff;fill-rule:nonzero;"/><path d="M28.163,49.127c0,0 -0.03,-0.011 -0.05,0l-0.005,0l0.025,0.042c0.013,0.01 0.043,0.032 0.043,0.032c0.007,-0.022 -0.003,-0.048 -0.003,-0.048l-0.01,-0.026Z" style="fill:#fff;fill-rule:nonzero;"/><path d="M28.026,49.274c0,0 -0.005,-0.015 -0.03,-0.015c-0.022,0.004 -0.01,0.015 -0.01,0.015l0.023,0.031c0.015,0.004 0.036,0.037 0.036,0.037l-0.01,-0.057l-0.009,-0.011Z" style="fill:#fff;fill-rule:nonzero;"/><path d="M23.316,48.563c0,0 -0.048,0.055 -0.048,0.092c0.003,0.043 0.081,-0.029 0.081,-0.029c0,0 0.085,-0.074 0.066,-0.105c-0.013,-0.018 -0.039,0.024 -0.099,0.042" style="fill:#fff;fill-rule:nonzero;"/><path d="M13.64,17.244l1.534,4.199l1.712,-4.199l1.698,0l1.705,4.199l1.547,-4.199l1.433,0l-2.171,5.02l-1.701,-0.009l-1.669,-4.076l-1.757,4.085l-1.697,-0.009l-2.103,-5.011l1.469,0Z" style="fill:#fff;fill-rule:nonzero;"/><path d="M27.801,17.171c1.595,0 2.709,0.289 3.355,0.858c0.462,0.416 0.689,0.995 0.684,1.73c0,0.906 -0.383,1.576 -1.167,1.984c-0.731,0.398 -1.737,0.593 -3,0.593c-1.439,-0.005 -2.5,-0.247 -3.163,-0.743c-0.268,-0.192 -0.48,-0.447 -0.64,-0.779c-0.153,-0.341 -0.231,-0.693 -0.231,-1.055c0,-0.371 0.078,-0.722 0.252,-1.04c0.172,-0.335 0.392,-0.592 0.678,-0.798c0.363,-0.248 0.806,-0.438 1.331,-0.561c0.527,-0.122 1.151,-0.187 1.901,-0.189m-0.017,0.635c-1.162,0 -1.961,0.246 -2.352,0.723c-0.231,0.29 -0.358,0.704 -0.358,1.217c0,0.627 0.172,1.084 0.527,1.4c0.415,0.364 1.133,0.553 2.163,0.545c1.172,0 1.945,-0.247 2.326,-0.74c0.216,-0.249 0.312,-0.653 0.312,-1.166c0,-0.624 -0.154,-1.085 -0.46,-1.377c-0.41,-0.39 -1.13,-0.595 -2.158,-0.602" style="fill:#fff;fill-rule:nonzero;"/><path d="M34.542,20.135l0.007,2.119l-1.358,0l0,-5.009l3.865,0c1.11,0 1.889,0.086 2.331,0.258c0.295,0.126 0.519,0.297 0.676,0.487c0.175,0.189 0.258,0.406 0.258,0.639c0,0.432 -0.239,0.772 -0.707,1.009c-0.263,0.124 -0.61,0.233 -1.05,0.305c0.565,0.153 0.964,0.34 1.163,0.529c0.201,0.208 0.336,0.548 0.398,1.021c0.035,0.314 0.06,0.485 0.074,0.556c0.011,0.056 0.074,0.124 0.154,0.205l-1.383,0c-0.068,-0.057 -0.092,-0.097 -0.097,-0.161c-0.019,-0.044 -0.044,-0.247 -0.091,-0.549c-0.083,-0.543 -0.335,-0.909 -0.755,-1.112c-0.403,-0.197 -1.112,-0.297 -2.132,-0.301l-1.353,0.004Zm0,-0.65l2.422,0c0.721,0 1.186,-0.044 1.423,-0.153c0.332,-0.139 0.491,-0.355 0.486,-0.642c0,-0.343 -0.174,-0.563 -0.525,-0.7c-0.21,-0.068 -0.663,-0.111 -1.384,-0.111l-2.422,0l0,1.606Z" style="fill:#fff;fill-rule:nonzero;"/><path d="M41.645,17.244l1.35,0l0,2.909c0,0.319 0.028,0.559 0.083,0.727c0.07,0.168 0.171,0.297 0.312,0.397c0.397,0.232 1.013,0.343 1.845,0.337l1.814,0l0,0.626l-2.08,0c-0.667,0 -1.182,-0.025 -1.579,-0.099c-0.392,-0.071 -0.737,-0.2 -1.033,-0.379c-0.254,-0.155 -0.444,-0.351 -0.546,-0.585c-0.118,-0.226 -0.166,-0.526 -0.166,-0.918l0,-3.015Z" style="fill:#fff;fill-rule:nonzero;"/><path d="M48.034,17.244l3.252,0c0.89,0 1.547,0.026 1.963,0.103c0.779,0.15 1.378,0.479 1.817,0.977c0.301,0.36 0.457,0.821 0.457,1.384c0,1.106 -0.509,1.864 -1.534,2.246c-0.317,0.116 -0.654,0.203 -0.998,0.242c-0.344,0.04 -0.878,0.059 -1.592,0.044l-3.365,0l0,-4.996Zm1.349,0.635l0,3.732l2.158,0c0.957,0 1.632,-0.168 2.021,-0.494c0.342,-0.303 0.519,-0.732 0.519,-1.308c0,-0.649 -0.2,-1.138 -0.605,-1.48c-0.205,-0.166 -0.448,-0.277 -0.752,-0.348c-0.328,-0.06 -0.74,-0.102 -1.279,-0.102l-2.062,0Z" style="fill:#fff;fill-rule:nonzero;"/><path d="M15.128,11.173l0,2.27l1.292,0l0,1.171l-4.281,0l0,-1.171l1.149,0l0,-5.934l-0.901,0l0,-1.32l39.682,0l0,1.32l-36.941,0l0,2.564l0.842,0l0,-0.869l1.188,0l0,2.79l-1.188,0l0,-0.821l-0.842,0Z" style="fill:#f6ed3d;fill-rule:nonzero;"/><path d="M49.245,9.967c-0.116,0.118 -0.279,0.31 -0.443,0.515c-0.324,0.425 -0.624,0.851 -0.624,0.917l0,2.043l0.554,0l0,1.172l-2.873,0l0,-1.172l0.582,0l0,-3.912l-0.582,0l0,-0.958l2.319,0l0,1.211l0.175,-0.235c0.118,-0.16 0.246,-0.329 0.379,-0.496c0.3,-0.314 0.654,-0.596 1.102,-0.596c0.724,0 1.135,0.4 1.135,1.029l0,2.59l-1.658,0l0,-2.182l-0.066,0.074Z" style="fill:#f6ed3d;fill-rule:nonzero;"/><rect x="53.19" y="6.196" width="1.755" height="1.312" style="fill:#f6ed3d;"/><path d="M29.079,9.967c-0.122,0.118 -0.269,0.31 -0.431,0.515c-0.334,0.425 -0.623,0.851 -0.623,0.917l0,2.043l0.543,0l0,1.172l-2.87,0l0,-1.172l0.577,0l0,-3.912l-0.577,0l0,-0.958l2.327,0l0,1.211l0.166,-0.235c0.111,-0.16 0.247,-0.329 0.388,-0.496c0.296,-0.314 0.645,-0.596 1.088,-0.596c0.718,0 1.137,0.4 1.137,1.029l0,2.59l-1.658,0l0,-2.182l-0.067,0.074Z" style="fill:#f6ed3d;fill-rule:nonzero;"/><path d="M55.522,14.614l-2.95,0l0,-1.179l0.627,0l0,-3.904l-0.627,0l0,-0.959l2.372,0l0,4.863l0.578,0l0,1.179Z" style="fill:#f6ed3d;fill-rule:nonzero;"/><path d="M35.677,9.967c-0.116,0.118 -0.267,0.31 -0.42,0.515c-0.336,0.425 -0.624,0.851 -0.624,0.917l0,2.043l0.538,0l0,1.172l-2.869,0l0,-1.172l0.588,0l0,-3.912l-0.588,0l0,-0.958l2.331,0l0,1.211l0.156,-0.235c0.118,-0.16 0.261,-0.329 0.388,-0.496c0.291,-0.314 0.658,-0.596 1.088,-0.596c0.73,0 1.139,0.4 1.139,1.029l0,2.59l-1.652,0l0,-2.182l-0.075,0.074Z" style="fill:#f6ed3d;fill-rule:nonzero;"/><path d="M41.609,8.456c1.589,0.014 2.223,0.203 2.223,1.303l0,3.294l0.01,0.39l0.584,0l0,1.171l-3.971,0c-0.856,0 -1.428,-0.59 -1.428,-1.321l0,-0.804c0,-0.724 0.372,-1.348 1.634,-1.361l1.451,0l0,-1.113c0,-0.577 -0.008,-0.614 -0.591,-0.614c-0.699,0.005 -0.712,0.071 -0.712,0.614l0,0.521l-1.609,0l0,-0.595c0,-1.24 0.676,-1.471 2.409,-1.485m-0.928,4.719c0,0.278 0.109,0.46 0.409,0.471l0.536,0c0.287,0 0.478,-0.076 0.478,-0.471l0,-1.233l-1.014,0c-0.254,0 -0.409,0.2 -0.409,0.478l0,0.755Z" style="fill:#f6ed3d;fill-rule:nonzero;"/><path d="M21.918,11.32l0,-1.63c0,-0.166 -0.1,-0.271 -0.359,-0.271l-0.67,0c-0.303,0 -0.372,0.111 -0.372,0.39l0,1.511l1.401,0Zm-0.609,3.418l-0.181,0c-1.606,-0.043 -2.351,-0.227 -2.351,-1.432l0,-3.324c0,-1.092 0.536,-1.5 2.324,-1.508l0.236,0c1.63,0.008 2.339,0.351 2.339,1.248l0,2.354l-3.179,0l0,1.3c0.015,0.076 0.033,0.122 0.058,0.145c0.063,0.058 0.231,0.089 0.684,0.082c0.717,0 0.753,-0.024 0.753,-0.554l0,-0.52l1.684,0l0,0.926c0,1.132 -0.623,1.24 -2.367,1.283" style="fill:#f6ed3d;fill-rule:nonzero;"/><path d="M63.47,75.359l0,0.31l-0.31,0l0,1.706l-0.429,0l0,-1.706l-0.311,0l0,-0.31l1.05,0Z" style="fill:#042631;fill-rule:nonzero;"/><path d="M64.221,75.359l0.182,1.447l0.02,0l0.207,-1.447l0.56,0l0,2.016l-0.344,0l0,-1.655l-0.026,0l-0.234,1.655l-0.374,0l-0.207,-1.655l-0.027,0l0,1.655l-0.326,0l0,-2.016l0.569,0Z" style="fill:#042631;fill-rule:nonzero;"/></g></svg>