<?xml version="1.0" encoding="UTF-8" standalone="no"?><!DOCTYPE svg PUBLIC "-//W3C//DTD SVG 1.1//EN" "http://www.w3.org/Graphics/SVG/1.1/DTD/svg11.dtd"><svg width="100%" height="100%" viewBox="0 0 106 65" version="1.1" xmlns="http://www.w3.org/2000/svg" xmlns:xlink="http://www.w3.org/1999/xlink" xml:space="preserve" xmlns:serif="http://www.serif.com/" style="fill-rule:evenodd;clip-rule:evenodd;stroke-linejoin:round;stroke-miterlimit:2;"><g><path d="M102.044,51.684l0,-0.003c0,-0.825 0.66,-1.501 1.504,-1.501c0.832,0 1.482,0.673 1.482,1.483l0,0.018c0,0.806 -0.654,1.485 -1.5,1.485c-0.832,0 -1.486,-0.678 -1.486,-1.482m2.851,-0.003l0,-0.018c0,-0.75 -0.586,-1.36 -1.347,-1.36c-0.78,0 -1.367,0.626 -1.367,1.378l0,0.003c0,0.737 0.587,1.346 1.349,1.346c0.779,0 1.365,-0.613 1.365,-1.349m-1.945,-0.815l0.683,0c0.2,0 0.359,0.063 0.456,0.165c0.076,0.062 0.132,0.167 0.132,0.294c0,0.251 -0.169,0.41 -0.405,0.447l0.484,0.613l-0.287,0l-0.436,-0.576l-0.403,0l0,0.576l-0.224,0l0,-1.519Zm0.662,0.745c0.221,0 0.376,-0.09 0.376,-0.274l0,-0.002c0,-0.158 -0.145,-0.261 -0.362,-0.261l-0.452,0l0,0.537l0.438,0Z" style="fill:#231f20;fill-rule:nonzero;"/><path d="M23.469,50.063c-0.509,0.323 -2.535,1.472 -4.375,1.209c-2.096,-0.285 -2.749,-2.104 -2.89,-4.464c-0.016,-0.305 -0.03,-0.622 -0.035,-0.946l7.62,0c0,-3.588 -2.107,-5.308 -5.623,-5.308c-3.478,0 -5.965,2.734 -5.965,6.087c0,0.169 0.003,0.336 0.019,0.497c0.231,3.393 2.809,5.648 6.001,5.648c3.354,0 5.115,-1.279 5.805,-1.835l-0.557,-0.888Zm-5.28,-8.586c1.413,0 1.786,1.811 1.864,3.463l-3.801,0c0.056,-1.812 0.69,-3.463 1.937,-3.463" style="fill:#231f20;fill-rule:nonzero;"/><path d="M35.503,51.341l0,-7.793c0,-1.646 -1.298,-3.135 -3.764,-3.107c-3.144,0.028 -4.816,0.721 -5.901,1.119l0.102,2.582l1.922,0l0.281,-2.184c0.663,-0.056 0.823,-0.241 2.184,0c1.199,0.212 1.442,1.009 1.465,2.171l0,1.733l-0.007,0.002l-2.684,0.276c-2.257,0.158 -4.192,1.319 -4.192,3.456c0,2.039 1.563,3.021 3.288,3.021c1.916,0 3.066,-0.825 3.623,-1.276l0.184,1.276l5.228,-0.265l0,-0.588l-1.729,-0.423Zm-3.711,-0.923c-0.477,0.34 -1.067,0.656 -1.731,0.681c-1.172,0 -1.788,-0.659 -1.788,-1.846c0,-1.268 0.957,-2.085 2.4,-2.243l1.119,-0.132l0,3.54Z" style="fill:#231f20;fill-rule:nonzero;"/><path d="M51.769,36.233l0,0.578l1.842,0.388l-2.642,8.284l-0.723,2.255l-0.732,-2.258l-2.695,-8.281l1.511,-0.388l0,-0.578l-6.518,0l0,0.532l1.311,0.409l1.693,5.004l-1.091,3.345l-0.847,2.626l-0.815,-2.597l-2.606,-8.353l1.36,-0.388l0,-0.578l-6.593,0l0,0.578l1.362,0.388l0.014,-0.005l2.867,8.44l2.319,6.801l1.746,0l2.399,-6.927l0.528,-1.523l0.491,1.513l2.269,6.937l1.886,0l2.472,-6.944l2.962,-8.297l0.011,0.005l1.514,-0.388l0,-0.578l-5.295,0Z" style="fill:#231f20;fill-rule:nonzero;"/><path d="M67.855,45.878c0,-0.012 -0.008,-0.024 -0.008,-0.036c-0.363,-3.597 -3.566,-5.376 -6.726,-5.376c-3.115,0 -6.174,1.67 -6.692,5.041c-0.014,0.11 -0.029,0.22 -0.038,0.335c-0.028,0.225 -0.038,0.456 -0.038,0.697c0,3.905 3.405,6.128 6.768,6.128c3.359,0 6.764,-2.223 6.764,-6.128c0,-0.227 -0.011,-0.447 -0.03,-0.661m-6.734,5.868c-1.884,0 -2.808,-2.446 -2.808,-5.207c0,-0.237 0.004,-0.469 0.019,-0.697c0.003,-0.091 0.015,-0.182 0.021,-0.268c0.193,-2.33 1.11,-4.187 2.768,-4.187c1.688,0 2.612,1.935 2.78,4.339c0,0.036 0.005,0.078 0.005,0.116c0.015,0.228 0.021,0.46 0.021,0.697c0,2.761 -0.931,5.207 -2.806,5.207" style="fill:#231f20;fill-rule:nonzero;"/><path d="M73.741,44.412c0.638,-0.586 1.388,-1.034 2.418,-1.034c0.822,0 1.253,0.266 1.592,0.532l1.147,-2.572c-0.295,-0.343 -0.929,-0.876 -2.157,-0.876c-1.511,0 -2.757,2.15 -3.187,2.969l-0.287,-2.969l-5.017,0.294l0,0.554l1.779,0.454l0,9.644l-1.779,0.425l0,0.557l8.148,0l0,-0.637l-2.657,-0.422l0,-6.919Z" style="fill:#231f20;fill-rule:nonzero;"/><path d="M84.403,51.408l0,-16.198l-5.488,0.344l0,0.561l1.774,0.423l0,14.87l-1.774,0.425l0,0.557l7.239,0l0,-0.557l-1.751,-0.425Z" style="fill:#231f20;fill-rule:nonzero;"/><path d="M99.318,35.206l-6.151,0.343l0,0.636l2.44,0.449l0,4.867c-0.851,-0.479 -2.176,-1.036 -3.926,-1.036c-2.962,0 -4.846,2.163 -5.139,5.377c-0.021,0.291 -0.044,0.594 -0.044,0.904c0,0.114 0,0.231 0.011,0.343c0.119,3.616 2.107,5.554 5.197,5.554c1.539,0 2.997,-0.554 3.901,-1.268l0.129,1.242l5.412,-0.239l0,-0.508l-1.83,-0.469l0,-16.195Zm-3.711,15.137c-0.503,0.292 -1.063,0.714 -2.202,0.714c-1.92,0 -2.815,-1.319 -2.954,-3.607c-0.014,-0.243 -0.017,-0.496 -0.017,-0.758c0.003,-0.29 0.017,-0.577 0.039,-0.85c0.193,-2.187 1.047,-3.838 2.744,-3.86c1.278,0 1.967,0.369 2.39,0.61l0,7.751Z" style="fill:#231f20;fill-rule:nonzero;"/><path d="M11.224,47.231c-0.072,-0.525 -0.218,-0.984 -0.435,-1.389c-0.884,-1.644 -2.821,-2.41 -4.293,-3.203c-1.808,-0.961 -3.613,-1.637 -3.613,-3.612c0,-1.301 1.04,-2.119 2.268,-2.119c1.421,0 2.4,0.818 3,1.254l0.393,2.291l1.484,0.004l0,-3.934c-0.547,-0.145 -2.483,-0.559 -5.153,-0.559c-2.917,0 -4.865,2.101 -4.865,4.51c0,2.983 2.434,3.996 4.019,4.838c0.363,0.191 0.701,0.364 1.02,0.53c1.113,0.577 1.957,1.048 2.407,1.751c0.228,0.359 0.35,0.778 0.35,1.31c0,1.517 -1.227,2.717 -2.861,2.717c-1.396,0 -2.167,-0.791 -2.673,-1.129l-0.584,-2.274c-0.022,0.002 -0.042,0.005 -0.06,0.007l-1.607,0.191c-0.009,0 -0.019,0.002 -0.02,0.002l0.177,3.613c0.77,0.193 2.123,0.627 5.127,0.627c2.891,0 5.957,-1.976 5.957,-4.816c0,-0.213 -0.014,-0.417 -0.038,-0.61" style="fill:#231f20;fill-rule:nonzero;"/><path d="M34.045,1.952c4.561,3.395 10.916,6.174 -3.183,12.057c-13.602,5.674 -18.29,9.529 -18.29,9.529c11.365,-2.506 21.738,-3.736 30.899,-4.173c-0.58,0.36 -1.242,0.731 -1.963,1.125c-10.419,5.631 -13.874,9.081 -13.874,9.081c34.735,-11.461 58.833,-6.021 58.833,-6.021l0,-0.003c0.003,0.003 0.007,0.003 0.007,0.003c-25.204,-18.813 -42.897,-23.547 -49.821,-23.55c-3.041,-0 -4.003,0.916 -2.608,1.952Z" style="fill:url(#_Linear1);fill-rule:nonzero;"/><path d="M43.184,10.629c3.611,2.176 8.429,3.8 0.296,8.739c26.424,-1.255 42.648,4.067 42.994,4.182c-19.55,-11.793 -33.271,-14.763 -39.707,-14.763c-3.717,0 -5.005,0.989 -3.583,1.842Z" style="fill:url(#_Linear2);fill-rule:nonzero;"/><path d="M5.966,60.819l-1.974,-3.111l1.321,0l1.225,2.062l1.247,-2.062l1.284,0l-1.973,3.089l0,2.047l-1.13,0l0,-2.025Z" style="fill:#1cace3;fill-rule:nonzero;"/><path d="M11.916,60.694l-0.683,-1.665l-0.682,1.665l1.365,0Zm-1.188,-3.023l1.042,0l2.2,5.172l-1.181,0l-0.469,-1.151l-2.173,0l-0.468,1.151l-1.153,0l2.202,-5.172Z" style="fill:#1cace3;fill-rule:nonzero;"/><path d="M14.337,62.095l0.667,-0.8c0.463,0.382 0.947,0.624 1.534,0.624c0.461,0 0.74,-0.183 0.74,-0.485l0,-0.014c0,-0.286 -0.175,-0.433 -1.034,-0.653c-1.034,-0.264 -1.702,-0.55 -1.702,-1.57l0,-0.014c0,-0.932 0.749,-1.548 1.798,-1.548c0.748,0 1.387,0.234 1.907,0.653l-0.587,0.85c-0.454,-0.315 -0.902,-0.505 -1.335,-0.505c-0.433,0 -0.66,0.197 -0.66,0.447l0,0.014c0,0.338 0.22,0.448 1.108,0.675c1.041,0.272 1.628,0.646 1.628,1.542l0,0.014c0,1.02 -0.778,1.591 -1.885,1.591c-0.777,0 -1.563,-0.271 -2.179,-0.821" style="fill:#1cace3;fill-rule:nonzero;"/><rect x="21.636" y="57.708" width="1.129" height="5.135" style="fill:#1cace3;"/><path d="M23.698,62.095l0.667,-0.8c0.462,0.382 0.947,0.624 1.534,0.624c0.461,0 0.74,-0.183 0.74,-0.485l0,-0.014c0,-0.286 -0.175,-0.433 -1.034,-0.653c-1.034,-0.264 -1.702,-0.55 -1.702,-1.57l0,-0.014c0,-0.932 0.749,-1.548 1.798,-1.548c0.748,0 1.386,0.234 1.907,0.653l-0.587,0.85c-0.454,-0.315 -0.903,-0.505 -1.335,-0.505c-0.433,0 -0.66,0.197 -0.66,0.447l0,0.014c0,0.338 0.22,0.448 1.108,0.675c1.041,0.272 1.628,0.646 1.628,1.542l0,0.014c0,1.02 -0.778,1.591 -1.885,1.591c-0.778,0 -1.563,-0.271 -2.179,-0.821" style="fill:#1cace3;fill-rule:nonzero;"/><path d="M28.746,57.708l1.129,0l0,4.109l2.561,0l0,1.026l-3.69,0l0,-5.135Z" style="fill:#1cace3;fill-rule:nonzero;"/><path d="M36.236,60.694l-0.682,-1.665l-0.683,1.665l1.365,0Zm-1.188,-3.023l1.042,0l2.2,5.172l-1.181,0l-0.469,-1.151l-2.172,0l-0.469,1.151l-1.153,0l2.202,-5.172Z" style="fill:#1cace3;fill-rule:nonzero;"/><path d="M39.083,57.708l1.042,0l2.406,3.162l0,-3.162l1.115,0l0,5.135l-0.961,0l-2.487,-3.264l0,3.264l-1.115,0l0,-5.135Z" style="fill:#1cace3;fill-rule:nonzero;"/><path d="M46.881,61.824c0.924,0 1.548,-0.624 1.548,-1.533l0,-0.015c0,-0.91 -0.624,-1.547 -1.548,-1.547l-0.873,0l0,3.095l0.873,0Zm-2.003,-4.115l2.003,0c1.614,0 2.729,1.107 2.729,2.553l0,0.014c0,1.445 -1.115,2.568 -2.729,2.568l-2.003,0l0,-5.135Z" style="fill:#1cace3;fill-rule:nonzero;"/><path d="M49.897,63.57c0.506,-0.051 0.755,-0.308 0.719,-0.727l-0.455,0l0,-1.173l1.189,0l0,0.99c0,0.969 -0.484,1.357 -1.358,1.372l-0.095,-0.462Z" style="fill:#1cace3;fill-rule:nonzero;"/><path d="M57.571,60.694l-0.682,-1.665l-0.683,1.665l1.365,0Zm-1.188,-3.023l1.042,0l2.2,5.172l-1.181,0l-0.469,-1.151l-2.173,0l-0.468,1.151l-1.153,0l2.202,-5.172Z" style="fill:#1cace3;fill-rule:nonzero;"/><path d="M62.86,61.853c0.499,0 0.8,-0.176 0.8,-0.558l0,-0.014c0,-0.345 -0.258,-0.557 -0.837,-0.557l-1.305,0l0,1.129l1.342,0Zm-0.301,-2.069c0.498,0 0.814,-0.161 0.814,-0.543l0,-0.015c0,-0.337 -0.263,-0.528 -0.741,-0.528l-1.114,0l0,1.086l1.041,0Zm-2.142,-2.076l2.384,0c0.587,0 1.05,0.161 1.343,0.455c0.235,0.234 0.352,0.521 0.352,0.873l0,0.014c0,0.58 -0.308,0.903 -0.675,1.108c0.594,0.228 0.961,0.572 0.961,1.262l0,0.015c0,0.939 -0.763,1.409 -1.922,1.409l-2.443,0l0,-5.136Z" style="fill:#1cace3;fill-rule:nonzero;"/><path d="M65.634,60.643l0,-2.935l1.13,0l0,2.906c0,0.836 0.418,1.269 1.107,1.269c0.69,0 1.108,-0.419 1.108,-1.232l0,-2.943l1.131,0l0,2.898c0,1.556 -0.874,2.319 -2.253,2.319c-1.379,0 -2.223,-0.771 -2.223,-2.282" style="fill:#1cace3;fill-rule:nonzero;"/><path d="M75.465,61.824c0.924,0 1.548,-0.624 1.548,-1.533l0,-0.015c0,-0.91 -0.624,-1.547 -1.548,-1.547l-0.874,0l0,3.095l0.874,0Zm-2.003,-4.115l2.003,0c1.614,0 2.729,1.107 2.729,2.553l0,0.014c0,1.445 -1.115,2.568 -2.729,2.568l-2.003,0l0,-5.135Z" style="fill:#1cace3;fill-rule:nonzero;"/><path d="M79.199,57.708l1.129,0l0,2.032l2.085,0l0,-2.032l1.129,0l0,5.135l-1.129,0l0,-2.061l-2.085,0l0,2.061l-1.129,0l0,-5.135Z" style="fill:#1cace3;fill-rule:nonzero;"/><path d="M87.724,60.694l-0.683,-1.665l-0.682,1.665l1.365,0Zm-1.188,-3.023l1.042,0l2.2,5.172l-1.181,0l-0.469,-1.151l-2.173,0l-0.468,1.151l-1.153,0l2.202,-5.172Z" style="fill:#1cace3;fill-rule:nonzero;"/><path d="M93.013,61.853c0.499,0 0.8,-0.176 0.8,-0.558l0,-0.014c0,-0.345 -0.257,-0.557 -0.837,-0.557l-1.305,0l0,1.129l1.342,0Zm-0.301,-2.069c0.498,0 0.814,-0.161 0.814,-0.543l0,-0.015c0,-0.337 -0.263,-0.528 -0.741,-0.528l-1.114,0l0,1.086l1.041,0Zm-2.142,-2.076l2.384,0c0.587,0 1.05,0.161 1.343,0.455c0.235,0.234 0.352,0.521 0.352,0.873l0,0.014c0,0.58 -0.308,0.903 -0.675,1.108c0.594,0.228 0.962,0.572 0.962,1.262l0,0.015c0,0.939 -0.764,1.409 -1.923,1.409l-2.443,0l0,-5.136Z" style="fill:#1cace3;fill-rule:nonzero;"/><rect x="95.919" y="57.708" width="1.13" height="5.135" style="fill:#1cace3;"/><path d="M9.289,47.4c-0.344,0.033 -0.68,0.067 -1.012,0.1c-0.277,0.027 -0.55,0.055 -0.82,0.083c0.226,0.36 0.35,0.779 0.35,1.308c0,0.004 0,0.008 -0.001,0.009l0,0.001l0.001,0.002c-0.001,1.517 -1.228,2.716 -2.862,2.716c-1.397,0 -2.168,-0.79 -2.673,-1.127l-0.585,-2.275c-0.021,0.002 -0.042,0.003 -0.059,0.007l-1.607,0.19c-0.01,0 -0.018,0.003 -0.021,0.003l0.114,2.312l0.008,0.156l0.055,1.134c0.771,0.194 2.124,0.628 5.127,0.628c2.798,0 5.759,-1.849 5.949,-4.545c0.005,-0.085 0.009,-0.174 0.009,-0.262l0,-0.001c0,-0.21 -0.015,-0.414 -0.038,-0.608c0,-0.004 -0.002,-0.006 -0.003,-0.01c-0.661,0.059 -1.306,0.12 -1.932,0.179Z" style="fill:url(#_Linear3);fill-rule:nonzero;"/><path d="M12.22,47.129c0.232,3.392 2.81,5.647 6.003,5.647c3.344,0 5.105,-1.273 5.799,-1.833l-0.553,-0.881c-0.508,0.324 -2.535,1.473 -4.374,1.209c-2.098,-0.284 -2.75,-2.103 -2.89,-4.462c0,-0.005 -0.001,-0.009 -0.001,-0.011c-1.383,0.11 -2.709,0.219 -3.984,0.331Z" style="fill:url(#_Linear4);fill-rule:nonzero;"/><path d="M31.792,45.853l0,0.01l-0.008,0.001l-2.683,0.276c-2.255,0.158 -4.186,1.315 -4.193,3.447c0.001,2.038 1.565,3.02 3.289,3.02c1.914,0 3.066,-0.826 3.623,-1.276l0.183,1.276l5.229,-0.264l0,-0.579l-1.73,-0.422l0,-5.632c-1.254,0.043 -2.491,0.093 -3.71,0.143Zm-3.52,3.4l0,-0.011c0,-1.267 0.959,-2.085 2.401,-2.242l1.119,-0.131l0,3.55c-0.477,0.34 -1.068,0.656 -1.732,0.681c-1.172,0 -1.788,-0.659 -1.788,-1.847Z" style="fill:url(#_Linear5);fill-rule:nonzero;"/><path d="M44.868,45.498c-0.379,0.005 -0.762,0.011 -1.139,0.014l-0.004,0.01l-0.847,2.628l-0.815,-2.598l-0.003,-0.01c-1.207,0.022 -2.404,0.047 -3.591,0.082l2.317,6.801l1.746,0l2.401,-6.927l-0.065,0Z" style="fill:url(#_Linear6);fill-rule:nonzero;"/><path d="M45.95,45.488l2.271,6.937l1.886,0l2.473,-6.943c-0.259,-0.003 -0.519,-0.003 -0.78,-0.005c-0.275,-0.003 -0.55,-0.005 -0.827,-0.005l-0.004,0.011l-0.723,2.255l-0.732,-2.258l-0.003,-0.009c-1.197,0.001 -2.381,0.006 -3.561,0.017Z" style="fill:url(#_Linear7);fill-rule:nonzero;"/><path d="M54.431,45.497c0,0.004 -0.001,0.007 -0.002,0.01c-0.013,0.108 -0.029,0.219 -0.037,0.331c-0.026,0.221 -0.038,0.452 -0.038,0.689c0,3.906 3.404,6.13 6.769,6.13c2.936,0 5.909,-1.701 6.61,-4.738c0,-0.001 0.001,-0.001 0.001,-0.002c0.099,-0.432 0.151,-0.892 0.151,-1.378l0,-0.001c0,-0.226 -0.011,-0.446 -0.03,-0.66c0,-0.003 -0.001,-0.007 -0.002,-0.01c-1.298,-0.055 -2.611,-0.109 -3.951,-0.151c0,0.036 0.006,0.078 0.006,0.115c0.015,0.227 0.02,0.46 0.02,0.695c0,0.519 -0.032,1.026 -0.098,1.508c-0.283,2.092 -1.182,3.71 -2.71,3.71c-1.884,0 -2.808,-2.445 -2.808,-5.206c0,-0.237 0.004,-0.468 0.02,-0.696c0.004,-0.091 0.016,-0.182 0.02,-0.268c0,-0.005 0,-0.007 0.001,-0.011c-1.289,-0.031 -2.597,-0.049 -3.921,-0.067l-0.001,0Z" style="fill:url(#_Linear8);fill-rule:nonzero;"/><path d="M70.031,45.97l0,5.428l-0.001,0.002l0,0.008l-1.777,0.425l0,0.547l8.144,0l0,-0.627l-2.656,-0.421l0,-5.167c-0.479,-0.028 -0.965,-0.055 -1.452,-0.081c-0.46,-0.025 -0.924,-0.047 -1.391,-0.072c-0.288,-0.012 -0.574,-0.028 -0.864,-0.042l-0.003,0Z" style="fill:url(#_Linear9);fill-rule:nonzero;"/><path d="M80.691,51.398l-0.002,0.002l0,0.008l-1.771,0.425l0,0.547l7.235,0l0,-0.546l-1.75,-0.426l0,-4.509c-1.193,-0.097 -2.43,-0.194 -3.712,-0.286l0,4.785Z" style="fill:url(#_Linear10);fill-rule:nonzero;"/><path d="M86.511,47.078c0.119,3.616 2.106,5.555 5.197,5.555c1.54,0 2.998,-0.556 3.901,-1.267l0.129,1.241l5.41,-0.239l0,-0.497l-1.83,-0.47l0,-2.995c-0.2,-0.023 -0.411,-0.049 -0.622,-0.074c-0.932,-0.11 -1.958,-0.231 -3.087,-0.357l0,2.356c0,0.002 -0.001,0.002 -0.002,0.002l0,0.009c-0.504,0.294 -1.064,0.716 -2.202,0.716c-1.92,0 -2.815,-1.319 -2.954,-3.607l0,-0.01c-1.247,-0.124 -2.559,-0.242 -3.94,-0.363Z" style="fill:url(#_Linear11);fill-rule:nonzero;"/></g><defs><linearGradient id="_Linear1" x1="0" y1="0" x2="1" y2="0" gradientUnits="userSpaceOnUse" gradientTransform="matrix(-12.336486,30.775121,30.775121,12.336486,56.940991,5.038491)"><stop offset="0" style="stop-color:#68cad3;stop-opacity:1"/><stop offset="0.25" style="stop-color:#19ace3;stop-opacity:1"/><stop offset="1" style="stop-color:#000003;stop-opacity:1"/></linearGradient><linearGradient id="_Linear2" x1="0" y1="0" x2="1" y2="0" gradientUnits="userSpaceOnUse" gradientTransform="matrix(-5.227784,13.042267,13.042267,5.227784,65.935487,13.239788)"><stop offset="0" style="stop-color:#fae82c;stop-opacity:1"/><stop offset="1" style="stop-color:#f58531;stop-opacity:1"/></linearGradient><linearGradient id="_Linear3" x1="0" y1="0" x2="1" y2="0" gradientUnits="userSpaceOnUse" gradientTransform="matrix(0,6.054601,6.054601,0,5.631001,46.934299)"><stop offset="0" style="stop-color:#139ad7;stop-opacity:1"/><stop offset="1" style="stop-color:#000003;stop-opacity:1"/></linearGradient><linearGradient id="_Linear4" x1="0" y1="0" x2="1" y2="0" gradientUnits="userSpaceOnUse" gradientTransform="matrix(0,6.605487,6.605487,0,18.121525,46.512543)"><stop offset="0" style="stop-color:#139ad7;stop-opacity:1"/><stop offset="1" style="stop-color:#000003;stop-opacity:1"/></linearGradient><linearGradient id="_Linear5" x1="0" y1="0" x2="1" y2="0" gradientUnits="userSpaceOnUse" gradientTransform="matrix(0,7.525912,7.525912,0,31.07064,45.423809)"><stop offset="0" style="stop-color:#139ad7;stop-opacity:1"/><stop offset="1" style="stop-color:#000003;stop-opacity:1"/></linearGradient><linearGradient id="_Linear6" x1="0" y1="0" x2="1" y2="0" gradientUnits="userSpaceOnUse" gradientTransform="matrix(0,7.555687,7.555687,0,41.70077,45.21097)"><stop offset="0" style="stop-color:#139ad7;stop-opacity:1"/><stop offset="1" style="stop-color:#000003;stop-opacity:1"/></linearGradient><linearGradient id="_Linear7" x1="0" y1="0" x2="1" y2="0" gradientUnits="userSpaceOnUse" gradientTransform="matrix(0,7.582576,7.582576,0,49.265651,45.184795)"><stop offset="0" style="stop-color:#139ad7;stop-opacity:1"/><stop offset="1" style="stop-color:#000003;stop-opacity:1"/></linearGradient><linearGradient id="_Linear8" x1="0" y1="0" x2="1" y2="0" gradientUnits="userSpaceOnUse" gradientTransform="matrix(0,7.788323,7.788323,0,61.119907,45.210672)"><stop offset="0" style="stop-color:#139ad7;stop-opacity:1"/><stop offset="1" style="stop-color:#000003;stop-opacity:1"/></linearGradient><linearGradient id="_Linear9" x1="0" y1="0" x2="1" y2="0" gradientUnits="userSpaceOnUse" gradientTransform="matrix(0,7.037551,7.037551,0,72.324784,45.685141)"><stop offset="0" style="stop-color:#139ad7;stop-opacity:1"/><stop offset="1" style="stop-color:#000003;stop-opacity:1"/></linearGradient><linearGradient id="_Linear10" x1="0" y1="0" x2="1" y2="0" gradientUnits="userSpaceOnUse" gradientTransform="matrix(0,6.396107,6.396107,0,82.535194,46.326242)"><stop offset="0" style="stop-color:#139ad7;stop-opacity:1"/><stop offset="1" style="stop-color:#000003;stop-opacity:1"/></linearGradient><linearGradient id="_Linear11" x1="0" y1="0" x2="1" y2="0" gradientUnits="userSpaceOnUse" gradientTransform="matrix(0,6.182029,6.182029,0,93.82967,46.793261)"><stop offset="0" style="stop-color:#139ad7;stop-opacity:1"/><stop offset="1" style="stop-color:#000003;stop-opacity:1"/></linearGradient></defs></svg>