<?xml version="1.0" encoding="UTF-8" standalone="no"?>
<!DOCTYPE svg PUBLIC "-//W3C//DTD SVG 1.1//EN" "http://www.w3.org/Graphics/SVG/1.1/DTD/svg11.dtd">
<svg width="100%" height="100%" viewBox="0 0 584 356" version="1.1" xmlns="http://www.w3.org/2000/svg" xmlns:xlink="http://www.w3.org/1999/xlink" xml:space="preserve" xmlns:serif="http://www.serif.com/" style="fill-rule:evenodd;clip-rule:evenodd;stroke-linejoin:round;stroke-miterlimit:2;">
    <g transform="matrix(1,0,0,1,-7964.894444,-4262.361111)">
        <g transform="matrix(5.555556,0,0,5.555556,8531.805,4549.372222)">
            <path d="M0,0.022L0,0.019C0,-0.806 0.66,-1.482 1.504,-1.482C2.336,-1.482 2.986,-0.809 2.986,0.001L2.986,0.019C2.986,0.825 2.332,1.504 1.486,1.504C0.654,1.504 0,0.826 0,0.022M2.851,0.019L2.851,0.001C2.851,-0.749 2.265,-1.359 1.504,-1.359C0.724,-1.359 0.137,-0.733 0.137,0.019L0.137,0.022C0.137,0.759 0.724,1.368 1.486,1.368C2.265,1.368 2.851,0.755 2.851,0.019M0.906,-0.796L1.589,-0.796C1.789,-0.796 1.948,-0.733 2.045,-0.631C2.121,-0.569 2.177,-0.464 2.177,-0.337C2.177,-0.086 2.008,0.073 1.772,0.11L2.256,0.723L1.969,0.723L1.533,0.147L1.13,0.147L1.13,0.723L0.906,0.723L0.906,-0.796ZM1.568,-0.051C1.789,-0.051 1.944,-0.141 1.944,-0.325L1.944,-0.327C1.944,-0.485 1.799,-0.588 1.582,-0.588L1.13,-0.588L1.13,-0.051L1.568,-0.051Z" style="fill:rgb(35,31,32);fill-rule:nonzero;"/>
        </g>
        <g transform="matrix(5.555556,0,0,5.555556,8095.28,4502.788889)">
            <path d="M0,6.786C-0.509,7.109 -2.535,8.258 -4.375,7.995C-6.471,7.71 -7.124,5.891 -7.265,3.531C-7.281,3.226 -7.295,2.909 -7.3,2.585L0.32,2.585C0.32,-1.003 -1.787,-2.723 -5.303,-2.723C-8.781,-2.723 -11.268,0.011 -11.268,3.364C-11.268,3.533 -11.265,3.7 -11.249,3.861C-11.018,7.254 -8.44,9.509 -5.248,9.509C-1.894,9.509 -0.133,8.23 0.557,7.674L0,6.786ZM-5.28,-1.8C-3.867,-1.8 -3.494,0.011 -3.416,1.663L-7.217,1.663C-7.161,-0.149 -6.527,-1.8 -5.28,-1.8" style="fill:rgb(35,31,32);fill-rule:nonzero;"/>
        </g>
        <g transform="matrix(5.555556,0,0,5.555556,8162.132222,4493.968889)">
            <path d="M0,9.652L0,1.859C0,0.213 -1.298,-1.276 -3.764,-1.248C-6.908,-1.22 -8.58,-0.527 -9.665,-0.129L-9.563,2.453L-7.641,2.453L-7.36,0.269C-6.697,0.213 -6.537,0.028 -5.176,0.269C-3.977,0.481 -3.734,1.278 -3.711,2.44L-3.711,4.173L-3.718,4.175L-6.402,4.451C-8.659,4.609 -10.594,5.77 -10.594,7.907C-10.594,9.946 -9.031,10.928 -7.306,10.928C-5.39,10.928 -4.24,10.103 -3.683,9.652L-3.499,10.928L1.729,10.663L1.729,10.075L0,9.652ZM-3.711,8.729C-4.188,9.069 -4.778,9.385 -5.442,9.41C-6.614,9.41 -7.23,8.751 -7.23,7.564C-7.23,6.296 -6.273,5.479 -4.83,5.321L-3.711,5.189L-3.711,8.729Z" style="fill:rgb(35,31,32);fill-rule:nonzero;"/>
        </g>
        <g transform="matrix(5.555556,0,0,5.555556,8252.5,4553.666111)">
            <path d="M0,-16.202L0,-15.624L1.842,-15.236L-0.8,-6.952L-1.523,-4.697L-2.255,-6.955L-4.95,-15.236L-3.439,-15.624L-3.439,-16.202L-9.957,-16.202L-9.957,-15.67L-8.646,-15.261L-6.953,-10.257L-8.044,-6.912L-8.891,-4.286L-9.706,-6.883L-12.312,-15.236L-10.952,-15.624L-10.952,-16.202L-17.545,-16.202L-17.545,-15.624L-16.183,-15.236L-16.169,-15.241L-13.302,-6.801L-10.983,0L-9.237,0L-6.838,-6.927L-6.31,-8.45L-5.819,-6.937L-3.55,0L-1.664,0L0.808,-6.944L3.77,-15.241L3.781,-15.236L5.295,-15.624L5.295,-16.202L0,-16.202Z" style="fill:rgb(35,31,32);fill-rule:nonzero;"/>
        </g>
        <g transform="matrix(5.555556,0,0,5.555556,8341.867222,4524.889444)">
            <path d="M0,-1.377C0,-1.389 -0.008,-1.401 -0.008,-1.413C-0.371,-5.01 -3.574,-6.789 -6.734,-6.789C-9.849,-6.789 -12.908,-5.119 -13.426,-1.748C-13.44,-1.638 -13.455,-1.528 -13.464,-1.413C-13.492,-1.188 -13.502,-0.957 -13.502,-0.716C-13.502,3.189 -10.097,5.412 -6.734,5.412C-3.375,5.412 0.03,3.189 0.03,-0.716C0.03,-0.943 0.019,-1.163 0,-1.377M-6.734,4.491C-8.618,4.491 -9.542,2.045 -9.542,-0.716C-9.542,-0.953 -9.538,-1.185 -9.523,-1.413C-9.52,-1.504 -9.508,-1.595 -9.502,-1.681C-9.309,-4.011 -8.392,-5.868 -6.734,-5.868C-5.046,-5.868 -4.122,-3.933 -3.954,-1.529C-3.954,-1.493 -3.949,-1.451 -3.949,-1.413C-3.934,-1.185 -3.928,-0.953 -3.928,-0.716C-3.928,2.045 -4.859,4.491 -6.734,4.491" style="fill:rgb(35,31,32);fill-rule:nonzero;"/>
        </g>
        <g transform="matrix(5.555556,0,0,5.555556,8374.565556,4531.471667)">
            <path d="M0,-4.028C0.638,-4.614 1.388,-5.062 2.418,-5.062C3.24,-5.062 3.671,-4.796 4.01,-4.53L5.157,-7.102C4.862,-7.445 4.228,-7.978 3,-7.978C1.489,-7.978 0.243,-5.828 -0.187,-5.009L-0.474,-7.978L-5.491,-7.684L-5.491,-7.13L-3.712,-6.676L-3.712,2.968L-5.491,3.393L-5.491,3.95L2.657,3.95L2.657,3.313L0,2.891L0,-4.028Z" style="fill:rgb(35,31,32);fill-rule:nonzero;"/>
        </g>
        <g transform="matrix(5.555556,0,0,5.555556,8433.798333,4463.428333)">
            <path d="M0,15.216L0,-0.982L-5.488,-0.638L-5.488,-0.077L-3.714,0.346L-3.714,15.216L-5.488,15.641L-5.488,16.198L1.751,16.198L1.751,15.641L0,15.216Z" style="fill:rgb(35,31,32);fill-rule:nonzero;"/>
        </g>
        <g transform="matrix(5.555556,0,0,5.555556,8516.66,4554.824444)">
            <path d="M0,-17.437L-6.151,-17.094L-6.151,-16.458L-3.711,-16.009L-3.711,-11.142C-4.562,-11.621 -5.887,-12.178 -7.637,-12.178C-10.599,-12.178 -12.483,-10.015 -12.776,-6.801C-12.797,-6.51 -12.82,-6.207 -12.82,-5.897C-12.82,-5.783 -12.82,-5.666 -12.809,-5.554C-12.69,-1.938 -10.702,0 -7.612,0C-6.073,0 -4.615,-0.554 -3.711,-1.268L-3.582,-0.026L1.83,-0.265L1.83,-0.773L0,-1.242L0,-17.437ZM-3.711,-2.3C-4.214,-2.008 -4.774,-1.586 -5.913,-1.586C-7.833,-1.586 -8.728,-2.905 -8.867,-5.193C-8.881,-5.436 -8.884,-5.689 -8.884,-5.951C-8.881,-6.241 -8.867,-6.528 -8.845,-6.801C-8.652,-8.988 -7.798,-10.639 -6.101,-10.661C-4.823,-10.661 -4.134,-10.292 -3.711,-10.051L-3.711,-2.3Z" style="fill:rgb(35,31,32);fill-rule:nonzero;"/>
        </g>
        <g transform="matrix(5.555556,0,0,5.555556,8027.248333,4492.303889)">
            <path d="M0,5.841C-0.072,5.316 -0.218,4.857 -0.435,4.452C-1.319,2.808 -3.256,2.042 -4.728,1.249C-6.536,0.288 -8.341,-0.388 -8.341,-2.363C-8.341,-3.664 -7.301,-4.482 -6.073,-4.482C-4.652,-4.482 -3.673,-3.664 -3.073,-3.228L-2.68,-0.937L-1.196,-0.933L-1.196,-4.867C-1.743,-5.012 -3.679,-5.426 -6.349,-5.426C-9.266,-5.426 -11.214,-3.325 -11.214,-0.916C-11.214,2.067 -8.78,3.08 -7.195,3.922C-6.832,4.113 -6.494,4.286 -6.175,4.452C-5.062,5.029 -4.218,5.5 -3.768,6.203C-3.54,6.562 -3.418,6.981 -3.418,7.513C-3.418,9.03 -4.645,10.23 -6.279,10.23C-7.675,10.23 -8.446,9.439 -8.952,9.101L-9.536,6.827C-9.558,6.829 -9.578,6.832 -9.596,6.834L-11.203,7.025C-11.212,7.025 -11.222,7.027 -11.223,7.027L-11.046,10.64C-10.276,10.833 -8.923,11.267 -5.919,11.267C-3.028,11.267 0.038,9.291 0.038,6.451C0.038,6.238 0.024,6.034 0,5.841" style="fill:rgb(35,31,32);fill-rule:nonzero;"/>
        </g>
        <g transform="matrix(-68.536036,170.972895,-170.972895,-68.536036,8281.234335,4290.353148)">
            <path d="M0.171,0.676C0.214,0.51 0.221,0.301 0.544,0.629C0.855,0.947 1.016,1.035 1.016,1.035C0.818,0.744 0.667,0.468 0.552,0.216C0.569,0.229 0.587,0.243 0.606,0.259C0.88,0.487 1.016,0.545 1.016,0.545C0.305,-0.299 0.187,-1.034 0.187,-1.034L0.187,-1.034C0.187,-1.034 0.187,-1.035 0.187,-1.035C-0.057,-0.118 0.009,0.431 0.087,0.625C0.121,0.71 0.157,0.726 0.171,0.676Z" style="fill:url(#_Linear1);fill-rule:nonzero;"/>
        </g>
        <g transform="matrix(22.326041,-74.800271,74.800271,22.326041,8308.789787,4400.165291)">
            <path d="M0.586,-1.565C0.511,-1.274 0.498,-0.913 -0.004,-1.367C0.619,0.41 0.587,1.624 0.586,1.65C0.992,0.077 0.915,-0.919 0.784,-1.358C0.709,-1.612 0.615,-1.679 0.586,-1.565Z" style="fill:url(#_Linear2);fill-rule:nonzero;"/>
        </g>
        <g transform="matrix(5.555556,0,0,5.555556,7998.036667,4594.208889)">
            <path d="M0,1.086L-1.974,-2.025L-0.653,-2.025L0.572,0.037L1.819,-2.025L3.103,-2.025L1.13,1.064L1.13,3.111L0,3.111L0,1.086Z" style="fill:rgb(28,172,227);fill-rule:nonzero;"/>
        </g>
        <g transform="matrix(5.555556,0,0,5.555556,8031.092778,4594.695)">
            <path d="M0,0.874L-0.683,-0.791L-1.365,0.874L0,0.874ZM-1.188,-2.149L-0.146,-2.149L2.054,3.023L0.873,3.023L0.404,1.872L-1.769,1.872L-2.237,3.023L-3.39,3.023L-1.188,-2.149Z" style="fill:rgb(28,172,227);fill-rule:nonzero;"/>
        </g>
        <g transform="matrix(5.555556,0,0,5.555556,8044.542778,4587.117778)">
            <path d="M0,3.639L0.667,2.839C1.13,3.221 1.614,3.463 2.201,3.463C2.662,3.463 2.941,3.28 2.941,2.978L2.941,2.964C2.941,2.678 2.766,2.531 1.907,2.311C0.873,2.047 0.205,1.761 0.205,0.741L0.205,0.727C0.205,-0.205 0.954,-0.821 2.003,-0.821C2.751,-0.821 3.39,-0.587 3.91,-0.168L3.323,0.682C2.869,0.367 2.421,0.177 1.988,0.177C1.555,0.177 1.328,0.374 1.328,0.624L1.328,0.638C1.328,0.976 1.548,1.086 2.436,1.313C3.477,1.585 4.064,1.959 4.064,2.855L4.064,2.869C4.064,3.889 3.286,4.46 2.179,4.46C1.402,4.46 0.616,4.189 0,3.639" style="fill:rgb(28,172,227);fill-rule:nonzero;"/>
        </g>
        <g transform="matrix(5.555556,0,0,5.555556,0,3194.45)">
            <rect x="1455.317" y="249.932" width="1.129" height="5.135" style="fill:rgb(28,172,227);"/>
        </g>
        <g transform="matrix(5.555556,0,0,5.555556,8096.551111,4587.117778)">
            <path d="M0,3.639L0.667,2.839C1.129,3.221 1.614,3.463 2.201,3.463C2.662,3.463 2.941,3.28 2.941,2.978L2.941,2.964C2.941,2.678 2.766,2.531 1.907,2.311C0.873,2.047 0.205,1.761 0.205,0.741L0.205,0.727C0.205,-0.205 0.954,-0.821 2.003,-0.821C2.751,-0.821 3.389,-0.587 3.91,-0.168L3.323,0.682C2.869,0.367 2.42,0.177 1.988,0.177C1.555,0.177 1.328,0.374 1.328,0.624L1.328,0.638C1.328,0.976 1.548,1.086 2.436,1.313C3.477,1.585 4.064,1.959 4.064,2.855L4.064,2.869C4.064,3.889 3.286,4.46 2.179,4.46C1.401,4.46 0.616,4.189 0,3.639" style="fill:rgb(28,172,227);fill-rule:nonzero;"/>
        </g>
        <g transform="matrix(5.555556,0,0,5.555556,8124.593333,4611.488889)">
            <path d="M0,-5.135L1.129,-5.135L1.129,-1.026L3.69,-1.026L3.69,0L0,0L0,-5.135Z" style="fill:rgb(28,172,227);fill-rule:nonzero;"/>
        </g>
        <g transform="matrix(5.555556,0,0,5.555556,8166.206111,4594.695)">
            <path d="M0,0.874L-0.682,-0.791L-1.365,0.874L0,0.874ZM-1.188,-2.149L-0.146,-2.149L2.054,3.023L0.873,3.023L0.404,1.872L-1.768,1.872L-2.237,3.023L-3.39,3.023L-1.188,-2.149Z" style="fill:rgb(28,172,227);fill-rule:nonzero;"/>
        </g>
        <g transform="matrix(5.555556,0,0,5.555556,8182.020556,4611.488889)">
            <path d="M0,-5.135L1.042,-5.135L3.448,-1.973L3.448,-5.135L4.563,-5.135L4.563,0L3.602,0L1.115,-3.264L1.115,0L0,0L0,-5.135Z" style="fill:rgb(28,172,227);fill-rule:nonzero;"/>
        </g>
        <g transform="matrix(5.555556,0,0,5.555556,8225.346667,4588.632778)">
            <path d="M0,3.095C0.924,3.095 1.548,2.471 1.548,1.562L1.548,1.547C1.548,0.637 0.924,0 0,0L-0.873,0L-0.873,3.095L0,3.095ZM-2.003,-1.02L0,-1.02C1.614,-1.02 2.729,0.087 2.729,1.533L2.729,1.547C2.729,2.992 1.614,4.115 0,4.115L-2.003,4.115L-2.003,-1.02Z" style="fill:rgb(28,172,227);fill-rule:nonzero;"/>
        </g>
        <g transform="matrix(5.555556,0,0,5.555556,8242.099444,4607.538889)">
            <path d="M0,1.438C0.506,1.387 0.755,1.13 0.719,0.711L0.264,0.711L0.264,-0.462L1.453,-0.462L1.453,0.528C1.453,1.497 0.969,1.885 0.095,1.9L0,1.438Z" style="fill:rgb(28,172,227);fill-rule:nonzero;"/>
        </g>
        <g transform="matrix(5.555556,0,0,5.555556,8284.731667,4594.695)">
            <path d="M0,0.874L-0.682,-0.791L-1.365,0.874L0,0.874ZM-1.188,-2.149L-0.146,-2.149L2.054,3.023L0.873,3.023L0.404,1.872L-1.769,1.872L-2.237,3.023L-3.39,3.023L-1.188,-2.149Z" style="fill:rgb(28,172,227);fill-rule:nonzero;"/>
        </g>
        <g transform="matrix(5.555556,0,0,5.555556,8314.118889,4588.467222)">
            <path d="M0,3.154C0.499,3.154 0.8,2.978 0.8,2.596L0.8,2.582C0.8,2.237 0.542,2.025 -0.037,2.025L-1.342,2.025L-1.342,3.154L0,3.154ZM-0.301,1.085C0.197,1.085 0.513,0.924 0.513,0.542L0.513,0.527C0.513,0.19 0.25,-0.001 -0.228,-0.001L-1.342,-0.001L-1.342,1.085L-0.301,1.085ZM-2.443,-0.991L-0.059,-0.991C0.528,-0.991 0.991,-0.83 1.284,-0.536C1.519,-0.302 1.636,-0.015 1.636,0.337L1.636,0.351C1.636,0.931 1.328,1.254 0.961,1.459C1.555,1.687 1.922,2.031 1.922,2.721L1.922,2.736C1.922,3.675 1.159,4.145 0,4.145L-2.443,4.145L-2.443,-0.991Z" style="fill:rgb(28,172,227);fill-rule:nonzero;"/>
        </g>
        <g transform="matrix(5.555556,0,0,5.555556,8329.525556,4595.636667)">
            <path d="M0,0.653L0,-2.282L1.13,-2.282L1.13,0.624C1.13,1.46 1.548,1.893 2.237,1.893C2.927,1.893 3.345,1.474 3.345,0.661L3.345,-2.282L4.476,-2.282L4.476,0.616C4.476,2.172 3.602,2.935 2.223,2.935C0.844,2.935 0,2.164 0,0.653" style="fill:rgb(28,172,227);fill-rule:nonzero;"/>
        </g>
        <g transform="matrix(5.555556,0,0,5.555556,8384.141667,4588.632778)">
            <path d="M0,3.095C0.924,3.095 1.548,2.471 1.548,1.562L1.548,1.547C1.548,0.637 0.924,0 0,0L-0.874,0L-0.874,3.095L0,3.095ZM-2.003,-1.02L0,-1.02C1.614,-1.02 2.729,0.087 2.729,1.533L2.729,1.547C2.729,2.992 1.614,4.115 0,4.115L-2.003,4.115L-2.003,-1.02Z" style="fill:rgb(28,172,227);fill-rule:nonzero;"/>
        </g>
        <g transform="matrix(5.555556,0,0,5.555556,8404.888333,4611.488889)">
            <path d="M0,-5.135L1.129,-5.135L1.129,-3.103L3.214,-3.103L3.214,-5.135L4.343,-5.135L4.343,0L3.214,0L3.214,-2.061L1.129,-2.061L1.129,0L0,0L0,-5.135Z" style="fill:rgb(28,172,227);fill-rule:nonzero;"/>
        </g>
        <g transform="matrix(5.555556,0,0,5.555556,8452.248889,4594.695)">
            <path d="M0,0.874L-0.683,-0.791L-1.365,0.874L0,0.874ZM-1.188,-2.149L-0.146,-2.149L2.054,3.023L0.873,3.023L0.404,1.872L-1.769,1.872L-2.237,3.023L-3.39,3.023L-1.188,-2.149Z" style="fill:rgb(28,172,227);fill-rule:nonzero;"/>
        </g>
        <g transform="matrix(5.555556,0,0,5.555556,8481.636111,4588.467222)">
            <path d="M0,3.154C0.499,3.154 0.8,2.978 0.8,2.596L0.8,2.582C0.8,2.237 0.543,2.025 -0.037,2.025L-1.342,2.025L-1.342,3.154L0,3.154ZM-0.301,1.085C0.197,1.085 0.513,0.924 0.513,0.542L0.513,0.527C0.513,0.19 0.25,-0.001 -0.228,-0.001L-1.342,-0.001L-1.342,1.085L-0.301,1.085ZM-2.443,-0.991L-0.059,-0.991C0.528,-0.991 0.991,-0.83 1.284,-0.536C1.519,-0.302 1.636,-0.015 1.636,0.337L1.636,0.351C1.636,0.931 1.328,1.254 0.961,1.459C1.555,1.687 1.923,2.031 1.923,2.721L1.923,2.736C1.923,3.675 1.159,4.145 0,4.145L-2.443,4.145L-2.443,-0.991Z" style="fill:rgb(28,172,227);fill-rule:nonzero;"/>
        </g>
        <g transform="matrix(5.555556,0,0,5.555556,0,3194.45)">
            <rect x="1529.6" y="249.932" width="1.13" height="5.135" style="fill:rgb(28,172,227);"/>
        </g>
        <g transform="matrix(0,33.636672,-33.636672,0,7996.177769,4523.107216)">
            <path d="M0.077,-0.604C0.082,-0.547 0.088,-0.492 0.093,-0.437C0.098,-0.391 0.103,-0.346 0.107,-0.302C0.167,-0.339 0.236,-0.359 0.323,-0.359C0.324,-0.359 0.324,-0.359 0.325,-0.359L0.325,-0.359L0.325,-0.359C0.576,-0.359 0.774,-0.157 0.774,0.113C0.774,0.344 0.643,0.471 0.588,0.555L0.212,0.651C0.212,0.655 0.212,0.658 0.213,0.661L0.244,0.927C0.244,0.928 0.245,0.93 0.245,0.93L0.627,0.911L0.653,0.91L0.84,0.901C0.872,0.773 0.944,0.55 0.944,0.054C0.944,-0.408 0.638,-0.897 0.193,-0.929C0.179,-0.929 0.164,-0.93 0.15,-0.93L0.149,-0.93C0.115,-0.93 0.081,-0.928 0.049,-0.924C0.048,-0.924 0.048,-0.923 0.047,-0.923C0.057,-0.814 0.067,-0.708 0.077,-0.604Z" style="fill:url(#_Linear3);fill-rule:nonzero;"/>
        </g>
        <g transform="matrix(0,36.697148,-36.697148,0,8065.563751,4520.764128)">
            <path d="M0.093,0.893C0.607,0.858 0.948,0.468 0.948,-0.016C0.948,-0.522 0.756,-0.788 0.671,-0.893L0.537,-0.81C0.586,-0.733 0.76,-0.426 0.72,-0.148C0.677,0.17 0.402,0.269 0.045,0.29C0.044,0.29 0.044,0.29 0.043,0.29C0.06,0.5 0.076,0.7 0.093,0.893Z" style="fill:url(#_Linear4);fill-rule:nonzero;"/>
        </g>
        <g transform="matrix(0,41.810625,-41.810625,0,8137.501998,4514.715607)">
            <path d="M0.057,-0.096L0.058,-0.096L0.058,-0.095L0.095,0.262C0.116,0.561 0.27,0.818 0.553,0.819C0.824,0.819 0.954,0.611 0.954,0.382C0.954,0.127 0.845,-0.026 0.785,-0.1L0.954,-0.124L0.919,-0.819L0.842,-0.819L0.786,-0.589L0.038,-0.589C0.044,-0.422 0.05,-0.258 0.057,-0.096ZM0.509,0.372L0.507,0.372C0.339,0.372 0.23,0.244 0.209,0.053L0.192,-0.096L0.664,-0.096C0.709,-0.033 0.751,0.046 0.754,0.134C0.754,0.29 0.667,0.372 0.509,0.372Z" style="fill:url(#_Linear5);fill-rule:nonzero;"/>
        </g>
        <g transform="matrix(0,41.976038,-41.976038,0,8196.567943,4513.533164)">
            <path d="M0.038,-0.419C0.039,-0.369 0.039,-0.318 0.04,-0.268L0.041,-0.268L0.389,-0.156L0.045,-0.048L0.044,-0.047C0.047,0.112 0.05,0.271 0.055,0.428L0.955,0.121L0.955,-0.11L0.038,-0.428L0.038,-0.419Z" style="fill:url(#_Linear6);fill-rule:nonzero;"/>
        </g>
        <g transform="matrix(0,42.125424,-42.125424,0,8238.585272,4513.387751)">
            <path d="M0.04,0.437L0.955,0.138L0.955,-0.111L0.039,-0.437C0.039,-0.403 0.039,-0.369 0.039,-0.334C0.038,-0.298 0.038,-0.262 0.038,-0.225L0.039,-0.225L0.337,-0.129L0.039,-0.033L0.038,-0.033C0.038,0.125 0.039,0.281 0.04,0.437Z" style="fill:url(#_Linear7);fill-rule:nonzero;"/>
        </g>
        <g transform="matrix(0,43.268461,-43.268461,0,8304.444961,4513.531509)">
            <path d="M0.037,0.859C0.037,0.859 0.038,0.859 0.038,0.859C0.052,0.861 0.066,0.863 0.081,0.864C0.109,0.867 0.139,0.869 0.169,0.869C0.671,0.869 0.956,0.432 0.956,-0.001C0.956,-0.377 0.738,-0.759 0.348,-0.849C0.348,-0.849 0.348,-0.849 0.347,-0.849C0.292,-0.862 0.233,-0.869 0.171,-0.869L0.17,-0.869C0.141,-0.869 0.113,-0.867 0.086,-0.865C0.085,-0.865 0.085,-0.865 0.084,-0.865C0.077,-0.698 0.07,-0.529 0.065,-0.357C0.07,-0.357 0.075,-0.358 0.08,-0.358C0.109,-0.36 0.139,-0.361 0.169,-0.361C0.236,-0.361 0.301,-0.357 0.363,-0.348C0.631,-0.312 0.839,-0.196 0.839,-0C0.839,0.242 0.525,0.36 0.171,0.36C0.14,0.36 0.11,0.36 0.081,0.358C0.07,0.357 0.058,0.356 0.047,0.355C0.046,0.355 0.046,0.355 0.045,0.355C0.041,0.521 0.039,0.689 0.037,0.859L0.037,0.859Z" style="fill:url(#_Linear8);fill-rule:nonzero;"/>
        </g>
        <g transform="matrix(0,39.097507,-39.097507,0,8366.701203,4516.167447)">
            <path d="M0.04,0.326L0.812,0.326L0.812,0.326L0.813,0.326L0.874,0.579L0.951,0.579L0.951,-0.579L0.862,-0.579L0.802,-0.201L0.068,-0.201C0.064,-0.133 0.06,-0.064 0.057,0.005C0.053,0.071 0.05,0.136 0.046,0.203C0.045,0.244 0.042,0.284 0.04,0.326L0.04,0.326Z" style="fill:url(#_Linear9);fill-rule:nonzero;"/>
        </g>
        <g transform="matrix(0,35.533926,-35.533926,0,8423.4267,4519.729123)">
            <path d="M0.793,0.288L0.793,0.289L0.795,0.289L0.861,0.566L0.946,0.566L0.946,-0.566L0.861,-0.566L0.795,-0.292L0.09,-0.292C0.074,-0.105 0.059,0.088 0.045,0.288L0.793,0.288Z" style="fill:url(#_Linear10);fill-rule:nonzero;"/>
        </g>
        <g transform="matrix(0,34.344605,-34.344605,0,8486.168501,4522.323672)">
            <path d="M0.046,1.184C0.631,1.165 0.945,0.843 0.945,0.343C0.945,0.094 0.855,-0.142 0.74,-0.288L0.94,-0.309L0.902,-1.184L0.821,-1.184L0.745,-0.888L0.261,-0.888C0.257,-0.855 0.253,-0.821 0.249,-0.787C0.231,-0.636 0.212,-0.471 0.191,-0.288L0.572,-0.288C0.573,-0.288 0.573,-0.288 0.573,-0.288L0.574,-0.288C0.622,-0.206 0.69,-0.115 0.69,0.069C0.69,0.379 0.477,0.524 0.106,0.546L0.105,0.546C0.085,0.748 0.066,0.96 0.046,1.184Z" style="fill:url(#_Linear11);fill-rule:nonzero;"/>
        </g>
    </g>
    <defs>
        <linearGradient id="_Linear1" x1="0" y1="0" x2="1" y2="0" gradientUnits="userSpaceOnUse" gradientTransform="matrix(1,0,0,-1,0,0.000006)"><stop offset="0" style="stop-color:rgb(104,202,211);stop-opacity:1"/><stop offset="0.25" style="stop-color:rgb(25,172,227);stop-opacity:1"/><stop offset="1" style="stop-color:rgb(0,0,3);stop-opacity:1"/></linearGradient>
        <linearGradient id="_Linear2" x1="0" y1="0" x2="1" y2="0" gradientUnits="userSpaceOnUse" gradientTransform="matrix(-0.995847,-0.091041,-0.091041,0.995847,0.870808,0.039722)"><stop offset="0" style="stop-color:rgb(250,232,44);stop-opacity:1"/><stop offset="1" style="stop-color:rgb(245,133,49);stop-opacity:1"/></linearGradient>
        <linearGradient id="_Linear3" x1="0" y1="0" x2="1" y2="0" gradientUnits="userSpaceOnUse" gradientTransform="matrix(1,0,0,-1,0,-0)"><stop offset="0" style="stop-color:rgb(19,154,215);stop-opacity:1"/><stop offset="1" style="stop-color:rgb(0,0,3);stop-opacity:1"/></linearGradient>
        <linearGradient id="_Linear4" x1="0" y1="0" x2="1" y2="0" gradientUnits="userSpaceOnUse" gradientTransform="matrix(1,0,0,-1,0,-0.000159)"><stop offset="0" style="stop-color:rgb(19,154,215);stop-opacity:1"/><stop offset="1" style="stop-color:rgb(0,0,3);stop-opacity:1"/></linearGradient>
        <linearGradient id="_Linear5" x1="0" y1="0" x2="1" y2="0" gradientUnits="userSpaceOnUse" gradientTransform="matrix(1,0,0,-1,0,-0.00017)"><stop offset="0" style="stop-color:rgb(19,154,215);stop-opacity:1"/><stop offset="1" style="stop-color:rgb(0,0,3);stop-opacity:1"/></linearGradient>
        <linearGradient id="_Linear6" x1="0" y1="0" x2="1" y2="0" gradientUnits="userSpaceOnUse" gradientTransform="matrix(1,0,0,-1,0,0.000061)"><stop offset="0" style="stop-color:rgb(19,154,215);stop-opacity:1"/><stop offset="1" style="stop-color:rgb(0,0,3);stop-opacity:1"/></linearGradient>
        <linearGradient id="_Linear7" x1="0" y1="0" x2="1" y2="0" gradientUnits="userSpaceOnUse" gradientTransform="matrix(1,0,0,-1,0,-0.000172)"><stop offset="0" style="stop-color:rgb(19,154,215);stop-opacity:1"/><stop offset="1" style="stop-color:rgb(0,0,3);stop-opacity:1"/></linearGradient>
        <linearGradient id="_Linear8" x1="0" y1="0" x2="1" y2="0" gradientUnits="userSpaceOnUse" gradientTransform="matrix(1,0,0,-1,0,-0.000105)"><stop offset="0" style="stop-color:rgb(19,154,215);stop-opacity:1"/><stop offset="1" style="stop-color:rgb(0,0,3);stop-opacity:1"/></linearGradient>
        <linearGradient id="_Linear9" x1="0" y1="0" x2="1" y2="0" gradientUnits="userSpaceOnUse" gradientTransform="matrix(1,0,0,-1,0,0.000062)"><stop offset="0" style="stop-color:rgb(19,154,215);stop-opacity:1"/><stop offset="1" style="stop-color:rgb(0,0,3);stop-opacity:1"/></linearGradient>
        <linearGradient id="_Linear10" x1="0" y1="0" x2="1" y2="0" gradientUnits="userSpaceOnUse" gradientTransform="matrix(1,0,0,-1,0,0.000096)"><stop offset="0" style="stop-color:rgb(19,154,215);stop-opacity:1"/><stop offset="1" style="stop-color:rgb(0,0,3);stop-opacity:1"/></linearGradient>
        <linearGradient id="_Linear11" x1="0" y1="0" x2="1" y2="0" gradientUnits="userSpaceOnUse" gradientTransform="matrix(1,0,0,-1,0,-0.000055)"><stop offset="0" style="stop-color:rgb(19,154,215);stop-opacity:1"/><stop offset="1" style="stop-color:rgb(0,0,3);stop-opacity:1"/></linearGradient>
    </defs>
</svg>
